<svg width="40" height="40" viewBox="0 0 40 40" fill="none" xmlns="http://www.w3.org/2000/svg">
<rect width="40" height="40" rx="8" fill="#F0FDF4"/>
<path d="M18.6389 24.4727L25.493 17.6185L24.1319 16.2574L18.6389 21.7504L15.868 18.9796L14.5069 20.3407L18.6389 24.4727ZM20 29.7227C18.6551 29.7227 17.3912 29.4674 16.2083 28.957C15.0255 28.4466 13.9965 27.7539 13.1215 26.8789C12.2465 26.0039 11.5538 24.975 11.0434 23.7921C10.533 22.6092 10.2778 21.3453 10.2778 20.0004C10.2778 18.6555 10.533 17.3916 11.0434 16.2088C11.5538 15.0259 12.2465 13.997 13.1215 13.122C13.9965 12.247 15.0255 11.5543 16.2083 11.0438C17.3912 10.5334 18.6551 10.2782 20 10.2782C21.3449 10.2782 22.6088 10.5334 23.7917 11.0438C24.9745 11.5543 26.0035 12.247 26.8785 13.122C27.7535 13.997 28.4462 15.0259 28.9566 16.2088C29.467 17.3916 29.7222 18.6555 29.7222 20.0004C29.7222 21.3453 29.467 22.6092 28.9566 23.7921C28.4462 24.975 27.7535 26.0039 26.8785 26.8789C26.0035 27.7539 24.9745 28.4466 23.7917 28.957C22.6088 29.4674 21.3449 29.7227 20 29.7227ZM20 27.7782C22.1713 27.7782 24.0104 27.0247 25.5174 25.5178C27.0243 24.0109 27.7778 22.1717 27.7778 20.0004C27.7778 17.8291 27.0243 15.99 25.5174 14.4831C24.0104 12.9761 22.1713 12.2227 20 12.2227C17.8287 12.2227 15.9896 12.9761 14.4826 14.4831C12.9757 15.99 12.2222 17.8291 12.2222 20.0004C12.2222 22.1717 12.9757 24.0109 14.4826 25.5178C15.9896 27.0247 17.8287 27.7782 20 27.7782Z" fill="#16A34A"/>
</svg>
