<svg width="32" height="32" viewBox="0 0 32 32" fill="none" xmlns="http://www.w3.org/2000/svg">
<rect width="32" height="32" rx="16" fill="#F8FAFC"/>
<path d="M11 24.334C10.3056 24.334 9.71528 24.0909 9.22917 23.6048C8.74306 23.1187 8.5 22.5284 8.5 21.834V19.334H11V7.66732L12.25 8.91732L13.5 7.66732L14.75 8.91732L16 7.66732L17.25 8.91732L18.5 7.66732L19.75 8.91732L21 7.66732L22.25 8.91732L23.5 7.66732V21.834C23.5 22.5284 23.2569 23.1187 22.7708 23.6048C22.2847 24.0909 21.6944 24.334 21 24.334H11ZM21 22.6673C21.2361 22.6673 21.434 22.5875 21.5938 22.4277C21.7535 22.268 21.8333 22.0701 21.8333 21.834V10.1673H12.6667V19.334H20.1667V21.834C20.1667 22.0701 20.2465 22.268 20.4062 22.4277C20.566 22.5875 20.7639 22.6673 21 22.6673ZM13.5 13.5006V11.834H18.5V13.5006H13.5ZM13.5 16.0007V14.334H18.5V16.0007H13.5ZM20.1667 13.5006C19.9306 13.5006 19.7326 13.4208 19.5729 13.2611C19.4132 13.1013 19.3333 12.9034 19.3333 12.6673C19.3333 12.4312 19.4132 12.2333 19.5729 12.0736C19.7326 11.9138 19.9306 11.834 20.1667 11.834C20.4028 11.834 20.6007 11.9138 20.7604 12.0736C20.9201 12.2333 21 12.4312 21 12.6673C21 12.9034 20.9201 13.1013 20.7604 13.2611C20.6007 13.4208 20.4028 13.5006 20.1667 13.5006ZM20.1667 16.0007C19.9306 16.0007 19.7326 15.9208 19.5729 15.7611C19.4132 15.6013 19.3333 15.4034 19.3333 15.1673C19.3333 14.9312 19.4132 14.7333 19.5729 14.5736C19.7326 14.4138 19.9306 14.334 20.1667 14.334C20.4028 14.334 20.6007 14.4138 20.7604 14.5736C20.9201 14.7333 21 14.9312 21 15.1673C21 15.4034 20.9201 15.6013 20.7604 15.7611C20.6007 15.9208 20.4028 16.0007 20.1667 16.0007ZM11 22.6673H18.5V21.0007H10.1667V21.834C10.1667 22.0701 10.2465 22.268 10.4062 22.4277C10.566 22.5875 10.7639 22.6673 11 22.6673ZM10.1667 22.6673C10.1667 22.6673 10.1667 22.5875 10.1667 22.4277C10.1667 22.268 10.1667 22.0701 10.1667 21.834V21.0007V22.6673Z" fill="#94A3B8"/>
</svg>
