<svg width="25" height="28" viewBox="0 0 25 28" fill="none" xmlns="http://www.w3.org/2000/svg">
<path d="M11.0377 22.75V20.8056H18.8155V13.9028C18.8155 12.0069 18.1552 10.3987 16.8346 9.07812C15.514 7.75752 13.9058 7.09722 12.0099 7.09722C10.1141 7.09722 8.50589 7.75752 7.18529 9.07812C5.86469 10.3987 5.20439 12.0069 5.20439 13.9028V19.8333H4.23216C3.69744 19.8333 3.23969 19.6429 2.8589 19.2622C2.47811 18.8814 2.28772 18.4236 2.28772 17.8889V15.9444C2.28772 15.6042 2.37279 15.2841 2.54293 14.9844C2.71307 14.6846 2.95207 14.4456 3.25994 14.2674L3.33286 12.9792C3.46249 11.8773 3.78251 10.8565 4.29293 9.91667C4.80334 8.97685 5.44339 8.15856 6.21307 7.46181C6.98274 6.76505 7.86584 6.22222 8.86237 5.83333C9.8589 5.44444 10.9081 5.25 12.0099 5.25C13.1118 5.25 14.1569 5.44444 15.1454 5.83333C16.1338 6.22222 17.0169 6.76099 17.7947 7.44965C18.5724 8.13831 19.2125 8.95255 19.7148 9.89236C20.2171 10.8322 20.5412 11.853 20.687 12.9549L20.7599 14.2188C21.0678 14.3646 21.3068 14.5833 21.477 14.875C21.6471 15.1667 21.7322 15.4745 21.7322 15.7986V18.0347C21.7322 18.3588 21.6471 18.6667 21.477 18.9583C21.3068 19.25 21.0678 19.4688 20.7599 19.6146V20.8056C20.7599 21.3403 20.5695 21.798 20.1888 22.1788C19.808 22.5596 19.3502 22.75 18.8155 22.75H11.0377ZM9.09328 15.9444C8.81781 15.9444 8.58691 15.8513 8.40057 15.6649C8.21422 15.4786 8.12105 15.2477 8.12105 14.9722C8.12105 14.6968 8.21422 14.4659 8.40057 14.2795C8.58691 14.0932 8.81781 14 9.09328 14C9.36874 14 9.59964 14.0932 9.78598 14.2795C9.97233 14.4659 10.0655 14.6968 10.0655 14.9722C10.0655 15.2477 9.97233 15.4786 9.78598 15.6649C9.59964 15.8513 9.36874 15.9444 9.09328 15.9444ZM14.9266 15.9444C14.6511 15.9444 14.4202 15.8513 14.2339 15.6649C14.0476 15.4786 13.9544 15.2477 13.9544 14.9722C13.9544 14.6968 14.0476 14.4659 14.2339 14.2795C14.4202 14.0932 14.6511 14 14.9266 14C15.2021 14 15.433 14.0932 15.6193 14.2795C15.8057 14.4659 15.8988 14.6968 15.8988 14.9722C15.8988 15.2477 15.8057 15.4786 15.6193 15.6649C15.433 15.8513 15.2021 15.9444 14.9266 15.9444ZM6.20091 14.4375C6.08749 12.7199 6.60601 11.2454 7.75647 10.0139C8.90693 8.78241 10.341 8.16667 12.0586 8.16667C13.5007 8.16667 14.7686 8.62442 15.8624 9.53993C16.9561 10.4554 17.6164 11.6262 17.8433 13.0521C16.3687 13.0359 15.0117 12.6389 13.7721 11.8611C12.5325 11.0833 11.5805 10.0301 10.9162 8.70139C10.6569 9.99768 10.1101 11.1522 9.27557 12.1649C8.44108 13.1777 7.41619 13.9352 6.20091 14.4375Z" fill="#008186"/>
</svg>
