<svg width="25" height="28" viewBox="0 0 25 28" fill="none" xmlns="http://www.w3.org/2000/svg">
<path d="M8.12107 19.8338H15.8988V17.8893H8.12107V19.8338ZM8.12107 15.9449H15.8988V14.0004H8.12107V15.9449ZM6.17662 23.7227C5.6419 23.7227 5.18415 23.5323 4.80336 23.1515C4.42257 22.7707 4.23218 22.3129 4.23218 21.7782V6.22266C4.23218 5.68793 4.42257 5.23018 4.80336 4.84939C5.18415 4.46861 5.6419 4.27821 6.17662 4.27821H13.9544L19.7877 10.1115V21.7782C19.7877 22.3129 19.5973 22.7707 19.2166 23.1515C18.8358 23.5323 18.378 23.7227 17.8433 23.7227H6.17662ZM12.9822 11.0838V6.22266H6.17662V21.7782H17.8433V11.0838H12.9822ZM6.17662 6.22266V11.0838V21.7782V6.22266Z" fill="white"/>
</svg>
