<svg width="25" height="28" viewBox="0 0 25 28" fill="none" xmlns="http://www.w3.org/2000/svg">
<path d="M17.017 22.4583L11.135 16.5278C10.8109 16.6574 10.4828 16.7546 10.1506 16.8194C9.81846 16.8843 9.46603 16.9167 9.09334 16.9167C7.47297 16.9167 6.09566 16.3495 4.9614 15.2153C3.82714 14.081 3.26001 12.7037 3.26001 11.0833C3.26001 10.5 3.34103 9.94502 3.50307 9.4184C3.6651 8.89178 3.89195 8.39352 4.18362 7.92361L7.73223 11.4722L9.48223 9.72222L5.93362 6.17361C6.40353 5.88194 6.90179 5.65509 7.42841 5.49306C7.95503 5.33102 8.51001 5.25 9.09334 5.25C10.7137 5.25 12.091 5.81713 13.2253 6.95139C14.3595 8.08565 14.9267 9.46296 14.9267 11.0833C14.9267 11.456 14.8943 11.8084 14.8295 12.1406C14.7646 12.4728 14.6674 12.8009 14.5378 13.125L20.4683 19.0069C20.6628 19.2014 20.76 19.4363 20.76 19.7118C20.76 19.9873 20.6628 20.2222 20.4683 20.4167L18.4267 22.4583C18.2322 22.6528 17.9973 22.75 17.7218 22.75C17.4464 22.75 17.2114 22.6528 17.017 22.4583ZM17.7218 20.3924L18.3781 19.7361L12.1558 13.5139C12.4475 13.1898 12.6582 12.8131 12.7878 12.3837C12.9174 11.9543 12.9822 11.5208 12.9822 11.0833C12.9822 10.1111 12.6703 9.26447 12.0465 8.5434C11.4226 7.82234 10.6489 7.38889 9.72529 7.24306L11.5239 9.04167C11.7183 9.23611 11.8156 9.46296 11.8156 9.72222C11.8156 9.98148 11.7183 10.2083 11.5239 10.4028L8.41279 13.5139C8.21834 13.7083 7.99149 13.8056 7.73223 13.8056C7.47297 13.8056 7.24612 13.7083 7.05168 13.5139L5.25307 11.7153C5.3989 12.6389 5.83235 13.4126 6.55341 14.0365C7.27448 14.6603 8.12112 14.9722 9.09334 14.9722C9.51464 14.9722 9.93594 14.9074 10.3572 14.7778C10.7785 14.6481 11.1593 14.4456 11.4996 14.1701L17.7218 20.3924Z" fill="#008186"/>
</svg>
