<svg width="25" height="28" viewBox="0 0 25 28" fill="none" xmlns="http://www.w3.org/2000/svg">
<path d="M21.7322 8.16623V19.8329C21.7322 20.3676 21.5418 20.8254 21.161 21.2062C20.7802 21.587 20.3224 21.7773 19.7877 21.7773H4.23216C3.69744 21.7773 3.23969 21.587 2.8589 21.2062C2.47811 20.8254 2.28772 20.3676 2.28772 19.8329V8.16623C2.28772 7.63151 2.47811 7.17376 2.8589 6.79297C3.23969 6.41218 3.69744 6.22179 4.23216 6.22179H19.7877C20.3224 6.22179 20.7802 6.41218 21.161 6.79297C21.5418 7.17376 21.7322 7.63151 21.7322 8.16623ZM4.23216 10.1107H19.7877V8.16623H4.23216V10.1107ZM4.23216 13.9996V19.8329H19.7877V13.9996H4.23216Z" fill="#008186"/>
</svg>
