<svg width="18" height="22" viewBox="0 0 18 22" fill="none" xmlns="http://www.w3.org/2000/svg">
<path d="M11.475 14.525L12.525 13.475L9.75 10.7V7.25H8.25V11.3L11.475 14.525ZM9 18.5C7.9625 18.5 6.9875 18.3031 6.075 17.9094C5.1625 17.5156 4.36875 16.9812 3.69375 16.3062C3.01875 15.6312 2.48438 14.8375 2.09063 13.925C1.69688 13.0125 1.5 12.0375 1.5 11C1.5 9.9625 1.69688 8.9875 2.09063 8.075C2.48438 7.1625 3.01875 6.36875 3.69375 5.69375C4.36875 5.01875 5.1625 4.48437 6.075 4.09062C6.9875 3.69687 7.9625 3.5 9 3.5C10.0375 3.5 11.0125 3.69687 11.925 4.09062C12.8375 4.48437 13.6313 5.01875 14.3063 5.69375C14.9813 6.36875 15.5156 7.1625 15.9094 8.075C16.3031 8.9875 16.5 9.9625 16.5 11C16.5 12.0375 16.3031 13.0125 15.9094 13.925C15.5156 14.8375 14.9813 15.6312 14.3063 16.3062C13.6313 16.9812 12.8375 17.5156 11.925 17.9094C11.0125 18.3031 10.0375 18.5 9 18.5ZM9 17C10.6625 17 12.0781 16.4156 13.2469 15.2469C14.4156 14.0781 15 12.6625 15 11C15 9.3375 14.4156 7.92188 13.2469 6.75312C12.0781 5.58437 10.6625 5 9 5C7.3375 5 5.92188 5.58437 4.75313 6.75312C3.58438 7.92188 3 9.3375 3 11C3 12.6625 3.58438 14.0781 4.75313 15.2469C5.92188 16.4156 7.3375 17 9 17Z" fill="#008186"/>
</svg>
