<svg width="40" height="40" viewBox="0 0 40 40" fill="none" xmlns="http://www.w3.org/2000/svg">
<rect width="40" height="40" rx="20" fill="#F0FDF4"/>
<path d="M18.8334 23.833L24.7084 17.958L23.5417 16.7913L18.8334 21.4997L16.4584 19.1247L15.2917 20.2913L18.8334 23.833ZM20.0001 28.333C18.8473 28.333 17.764 28.1143 16.7501 27.6768C15.7362 27.2393 14.8542 26.6455 14.1042 25.8955C13.3542 25.1455 12.7605 24.2636 12.323 23.2497C11.8855 22.2358 11.6667 21.1525 11.6667 19.9997C11.6667 18.8469 11.8855 17.7636 12.323 16.7497C12.7605 15.7358 13.3542 14.8538 14.1042 14.1038C14.8542 13.3538 15.7362 12.7601 16.7501 12.3226C17.764 11.8851 18.8473 11.6663 20.0001 11.6663C21.1529 11.6663 22.2362 11.8851 23.2501 12.3226C24.264 12.7601 25.1459 13.3538 25.8959 14.1038C26.6459 14.8538 27.2397 15.7358 27.6772 16.7497C28.1147 17.7636 28.3334 18.8469 28.3334 19.9997C28.3334 21.1525 28.1147 22.2358 27.6772 23.2497C27.2397 24.2636 26.6459 25.1455 25.8959 25.8955C25.1459 26.6455 24.264 27.2393 23.2501 27.6768C22.2362 28.1143 21.1529 28.333 20.0001 28.333ZM20.0001 26.6663C21.8612 26.6663 23.4376 26.0205 24.7292 24.7288C26.0209 23.4372 26.6667 21.8608 26.6667 19.9997C26.6667 18.1386 26.0209 16.5622 24.7292 15.2705C23.4376 13.9788 21.8612 13.333 20.0001 13.333C18.139 13.333 16.5626 13.9788 15.2709 15.2705C13.9792 16.5622 13.3334 18.1386 13.3334 19.9997C13.3334 21.8608 13.9792 23.4372 15.2709 24.7288C16.5626 26.0205 18.139 26.6663 20.0001 26.6663Z" fill="#16A34A"/>
</svg>
