<svg width="18" height="22" viewBox="0 0 18 22" fill="none" xmlns="http://www.w3.org/2000/svg">
<path d="M3.75 18.5C3.3375 18.5 2.98438 18.3531 2.69063 18.0594C2.39687 17.7656 2.25 17.4125 2.25 17V6.5C2.25 6.0875 2.39687 5.73437 2.69063 5.44062C2.98438 5.14687 3.3375 5 3.75 5H4.5V3.5H6V5H12V3.5H13.5V5H14.25C14.6625 5 15.0156 5.14687 15.3094 5.44062C15.6031 5.73437 15.75 6.0875 15.75 6.5V17C15.75 17.4125 15.6031 17.7656 15.3094 18.0594C15.0156 18.3531 14.6625 18.5 14.25 18.5H3.75ZM3.75 17H14.25V9.5H3.75V17ZM3.75 8H14.25V6.5H3.75V8ZM9 12.5C8.7875 12.5 8.60938 12.4281 8.46563 12.2844C8.32188 12.1406 8.25 11.9625 8.25 11.75C8.25 11.5375 8.32188 11.3594 8.46563 11.2156C8.60938 11.0719 8.7875 11 9 11C9.2125 11 9.39063 11.0719 9.53438 11.2156C9.67813 11.3594 9.75 11.5375 9.75 11.75C9.75 11.9625 9.67813 12.1406 9.53438 12.2844C9.39063 12.4281 9.2125 12.5 9 12.5ZM6 12.5C5.7875 12.5 5.60938 12.4281 5.46563 12.2844C5.32188 12.1406 5.25 11.9625 5.25 11.75C5.25 11.5375 5.32188 11.3594 5.46563 11.2156C5.60938 11.0719 5.7875 11 6 11C6.2125 11 6.39062 11.0719 6.53438 11.2156C6.67813 11.3594 6.75 11.5375 6.75 11.75C6.75 11.9625 6.67813 12.1406 6.53438 12.2844C6.39062 12.4281 6.2125 12.5 6 12.5ZM12 12.5C11.7875 12.5 11.6094 12.4281 11.4656 12.2844C11.3219 12.1406 11.25 11.9625 11.25 11.75C11.25 11.5375 11.3219 11.3594 11.4656 11.2156C11.6094 11.0719 11.7875 11 12 11C12.2125 11 12.3906 11.0719 12.5344 11.2156C12.6781 11.3594 12.75 11.5375 12.75 11.75C12.75 11.9625 12.6781 12.1406 12.5344 12.2844C12.3906 12.4281 12.2125 12.5 12 12.5ZM9 15.5C8.7875 15.5 8.60938 15.4281 8.46563 15.2844C8.32188 15.1406 8.25 14.9625 8.25 14.75C8.25 14.5375 8.32188 14.3594 8.46563 14.2156C8.60938 14.0719 8.7875 14 9 14C9.2125 14 9.39063 14.0719 9.53438 14.2156C9.67813 14.3594 9.75 14.5375 9.75 14.75C9.75 14.9625 9.67813 15.1406 9.53438 15.2844C9.39063 15.4281 9.2125 15.5 9 15.5ZM6 15.5C5.7875 15.5 5.60938 15.4281 5.46563 15.2844C5.32188 15.1406 5.25 14.9625 5.25 14.75C5.25 14.5375 5.32188 14.3594 5.46563 14.2156C5.60938 14.0719 5.7875 14 6 14C6.2125 14 6.39062 14.0719 6.53438 14.2156C6.67813 14.3594 6.75 14.5375 6.75 14.75C6.75 14.9625 6.67813 15.1406 6.53438 15.2844C6.39062 15.4281 6.2125 15.5 6 15.5ZM12 15.5C11.7875 15.5 11.6094 15.4281 11.4656 15.2844C11.3219 15.1406 11.25 14.9625 11.25 14.75C11.25 14.5375 11.3219 14.3594 11.4656 14.2156C11.6094 14.0719 11.7875 14 12 14C12.2125 14 12.3906 14.0719 12.5344 14.2156C12.6781 14.3594 12.75 14.5375 12.75 14.75C12.75 14.9625 12.6781 15.1406 12.5344 15.2844C12.3906 15.4281 12.2125 15.5 12 15.5Z" fill="#008186"/>
</svg>
