<svg width="49" height="56" viewBox="0 0 49 56" fill="none" xmlns="http://www.w3.org/2000/svg">
<rect width="48.02" height="56" rx="24.01" fill="#008186" fill-opacity="0.1"/>
<path d="M17.2045 34.8056V21.1944C17.2045 21.1944 17.2045 21.555 17.2045 22.276C17.2045 22.9971 17.2045 23.9329 17.2045 25.0833V30.9167C17.2045 32.0671 17.2045 33.0029 17.2045 33.724C17.2045 34.445 17.2045 34.8056 17.2045 34.8056ZM17.2045 36.75C16.6697 36.75 16.212 36.5596 15.8312 36.1788C15.4504 35.798 15.26 35.3403 15.26 34.8056V21.1944C15.26 20.6597 15.4504 20.202 15.8312 19.8212C16.212 19.4404 16.6697 19.25 17.2045 19.25H30.8156C31.3503 19.25 31.808 19.4404 32.1888 19.8212C32.5696 20.202 32.76 20.6597 32.76 21.1944V23.625H30.8156V21.1944H17.2045V34.8056H30.8156V32.375H32.76V34.8056C32.76 35.3403 32.5696 35.798 32.1888 36.1788C31.808 36.5596 31.3503 36.75 30.8156 36.75H17.2045ZM24.9822 32.8611C24.4475 32.8611 23.9898 32.6707 23.609 32.2899C23.2282 31.9091 23.0378 31.4514 23.0378 30.9167V25.0833C23.0378 24.5486 23.2282 24.0909 23.609 23.7101C23.9898 23.3293 24.4475 23.1389 24.9822 23.1389H31.7878C32.3225 23.1389 32.7803 23.3293 33.1611 23.7101C33.5418 24.0909 33.7322 24.5486 33.7322 25.0833V30.9167C33.7322 31.4514 33.5418 31.9091 33.1611 32.2899C32.7803 32.6707 32.3225 32.8611 31.7878 32.8611H24.9822ZM31.7878 30.9167V25.0833H24.9822V30.9167H31.7878ZM27.8989 29.4583C28.304 29.4583 28.6483 29.3166 28.9319 29.033C29.2155 28.7494 29.3572 28.4051 29.3572 28C29.3572 27.5949 29.2155 27.2506 28.9319 26.967C28.6483 26.6834 28.304 26.5417 27.8989 26.5417C27.4938 26.5417 27.1495 26.6834 26.8659 26.967C26.5823 27.2506 26.4406 27.5949 26.4406 28C26.4406 28.4051 26.5823 28.7494 26.8659 29.033C27.1495 29.3166 27.4938 29.4583 27.8989 29.4583Z" fill="#008186"/>
</svg>
