<svg width="41" height="40" viewBox="0 0 41 40" fill="none" xmlns="http://www.w3.org/2000/svg">
<rect width="40.02" height="40" rx="8" fill="#FFEDD5"/>
<path d="M10.2878 28.75V26.8056C10.9036 26.8056 11.3654 26.6435 11.6733 26.3194C11.9811 25.9954 12.5888 25.8333 13.4962 25.8333C14.4036 25.8333 15.0274 25.9954 15.3677 26.3194C15.708 26.6435 16.1698 26.8056 16.7531 26.8056C17.3365 26.8056 17.7983 26.6435 18.1385 26.3194C18.4788 25.9954 19.1027 25.8333 20.0101 25.8333C20.9175 25.8333 21.5413 25.9954 21.8816 26.3194C22.2219 26.6435 22.6837 26.8056 23.267 26.8056C23.8503 26.8056 24.3121 26.6435 24.6524 26.3194C24.9927 25.9954 25.6165 25.8333 26.524 25.8333C27.4314 25.8333 28.039 25.9954 28.3469 26.3194C28.6547 26.6435 29.1165 26.8056 29.7323 26.8056V28.75C28.7763 28.75 28.1484 28.588 27.8486 28.2639C27.5488 27.9398 27.1073 27.7778 26.524 27.7778C25.9406 27.7778 25.4788 27.9398 25.1385 28.2639C24.7983 28.588 24.1744 28.75 23.267 28.75C22.3596 28.75 21.7358 28.588 21.3955 28.2639C21.0552 27.9398 20.5934 27.7778 20.0101 27.7778C19.4267 27.7778 18.9649 27.9398 18.6246 28.2639C18.2844 28.588 17.6605 28.75 16.7531 28.75C15.8457 28.75 15.2219 28.588 14.8816 28.2639C14.5413 27.9398 14.0795 27.7778 13.4962 27.7778C12.9128 27.7778 12.4713 27.9398 12.1715 28.2639C11.8718 28.588 11.2439 28.75 10.2878 28.75ZM10.2878 24.375V22.4306C10.9036 22.4306 11.3654 22.2685 11.6733 21.9444C11.9811 21.6204 12.5888 21.4583 13.4962 21.4583C14.4036 21.4583 15.0315 21.6204 15.3799 21.9444C15.7282 22.2685 16.186 22.4306 16.7531 22.4306C17.3365 22.4306 17.7983 22.2685 18.1385 21.9444C18.4788 21.6204 19.1027 21.4583 20.0101 21.4583C20.9175 21.4583 21.5413 21.6204 21.8816 21.9444C22.2219 22.2685 22.6837 22.4306 23.267 22.4306C23.8503 22.4306 24.3121 22.2685 24.6524 21.9444C24.9927 21.6204 25.6165 21.4583 26.524 21.4583C27.4314 21.4583 28.039 21.6204 28.3469 21.9444C28.6547 22.2685 29.1165 22.4306 29.7323 22.4306V24.375C28.7763 24.375 28.1484 24.213 27.8486 23.8889C27.5488 23.5648 27.1073 23.4028 26.524 23.4028C25.9406 23.4028 25.491 23.5648 25.175 23.8889C24.859 24.213 24.223 24.375 23.267 24.375C22.3434 24.375 21.7155 24.213 21.3833 23.8889C21.0512 23.5648 20.5934 23.4028 20.0101 23.4028C19.3943 23.4028 18.9366 23.5648 18.6368 23.8889C18.337 24.213 17.7091 24.375 16.7531 24.375C15.7971 24.375 15.1611 24.213 14.8451 23.8889C14.5292 23.5648 14.0795 23.4028 13.4962 23.4028C12.9128 23.4028 12.4713 23.5648 12.1715 23.8889C11.8718 24.213 11.2439 24.375 10.2878 24.375ZM15.0517 19.4167L18.2844 16.184L17.3121 15.2118C16.7774 14.6771 16.2103 14.2882 15.6108 14.0451C15.0112 13.8021 14.274 13.6806 13.399 13.6806V11.25C14.6142 11.25 15.6189 11.3837 16.4128 11.651C17.2068 11.9184 17.9846 12.4329 18.7462 13.1944L24.9684 19.4167C24.6929 19.5949 24.4256 19.7367 24.1663 19.842C23.9071 19.9473 23.6073 20 23.267 20C22.6837 20 22.2219 19.838 21.8816 19.5139C21.5413 19.1898 20.9175 19.0278 20.0101 19.0278C19.1027 19.0278 18.4788 19.1898 18.1385 19.5139C17.7983 19.838 17.3365 20 16.7531 20C16.4128 20 16.1131 19.9473 15.8538 19.842C15.5946 19.7367 15.3272 19.5949 15.0517 19.4167ZM24.5795 11.25C25.2601 11.25 25.8353 11.489 26.3052 11.967C26.7751 12.445 27.0101 13.0162 27.0101 13.6806C27.0101 14.3611 26.7751 14.9363 26.3052 15.4062C25.8353 15.8762 25.2601 16.1111 24.5795 16.1111C23.899 16.1111 23.3237 15.8762 22.8538 15.4062C22.3839 14.9363 22.149 14.3611 22.149 13.6806C22.149 13.0162 22.3839 12.445 22.8538 11.967C23.3237 11.489 23.899 11.25 24.5795 11.25Z" fill="#EA580C"/>
</svg>
