<svg width="41" height="40" viewBox="0 0 41 40" fill="none" xmlns="http://www.w3.org/2000/svg">
<rect width="40.02" height="40" rx="8" fill="#F3E8FF"/>
<path d="M16.1211 25.8338H23.8988V23.8893H16.1211V25.8338ZM16.1211 21.9449H23.8988V20.0004H16.1211V21.9449ZM14.1766 29.7227C13.6419 29.7227 13.1841 29.5323 12.8034 29.1515C12.4226 28.7707 12.2322 28.3129 12.2322 27.7782V12.2227C12.2322 11.6879 12.4226 11.2302 12.8034 10.8494C13.1841 10.4686 13.6419 10.2782 14.1766 10.2782H21.9544L27.7877 16.1115V27.7782C27.7877 28.3129 27.5973 28.7707 27.2166 29.1515C26.8358 29.5323 26.378 29.7227 25.8433 29.7227H14.1766ZM20.9822 17.0838V12.2227H14.1766V27.7782H25.8433V17.0838H20.9822ZM14.1766 12.2227V17.0838V27.7782V12.2227Z" fill="#9333EA"/>
</svg>
