<svg width="16" height="20" viewBox="0 0 16 20" fill="none" xmlns="http://www.w3.org/2000/svg">
<path d="M3.33333 16.666C2.96667 16.666 2.65278 16.5355 2.39167 16.2743C2.13056 16.0132 2 15.6993 2 15.3327V5.99935C2 5.63268 2.13056 5.31879 2.39167 5.05768C2.65278 4.79657 2.96667 4.66601 3.33333 4.66601H4V3.33268H5.33333V4.66601H10.6667V3.33268H12V4.66601H12.6667C13.0333 4.66601 13.3472 4.79657 13.6083 5.05768C13.8694 5.31879 14 5.63268 14 5.99935V15.3327C14 15.6993 13.8694 16.0132 13.6083 16.2743C13.3472 16.5355 13.0333 16.666 12.6667 16.666H3.33333ZM3.33333 15.3327H12.6667V8.66602H3.33333V15.3327ZM3.33333 7.33268H12.6667V5.99935H3.33333V7.33268Z" fill="#64748B"/>
</svg>
