<svg width="41" height="40" viewBox="0 0 41 40" fill="none" xmlns="http://www.w3.org/2000/svg">
<rect width="40.02" height="40" rx="8" fill="#DCFCE7"/>
<path d="M27.7392 28.75C25.7137 28.75 23.7126 28.3084 21.7357 27.4253C19.7589 26.5422 17.9602 25.2905 16.3399 23.6701C14.7195 22.0498 13.4678 20.2512 12.5847 18.2743C11.7016 16.2975 11.26 14.2963 11.26 12.2708C11.26 11.9792 11.3572 11.7361 11.5517 11.5417C11.7461 11.3472 11.9892 11.25 12.2808 11.25H16.2183C16.4452 11.25 16.6477 11.327 16.826 11.4809C17.0042 11.6348 17.1095 11.8171 17.142 12.0278L17.7739 15.4306C17.8063 15.6898 17.7982 15.9086 17.7496 16.0868C17.701 16.265 17.6119 16.419 17.4822 16.5486L15.1246 18.9306C15.4487 19.5301 15.8335 20.1094 16.2791 20.6684C16.7247 21.2274 17.2149 21.7662 17.7496 22.2847C18.2519 22.787 18.7785 23.2529 19.3295 23.6823C19.8804 24.1117 20.4637 24.5046 21.0795 24.8611L23.3642 22.5764C23.51 22.4306 23.7004 22.3212 23.9354 22.2483C24.1703 22.1753 24.4012 22.1551 24.6281 22.1875L27.9822 22.8681C28.2091 22.9329 28.3954 23.0503 28.5413 23.2205C28.6871 23.3906 28.76 23.581 28.76 23.7917V27.7292C28.76 28.0208 28.6628 28.2639 28.4683 28.4583C28.2739 28.6528 28.0308 28.75 27.7392 28.75ZM14.201 17.0833L15.8051 15.4792L15.392 13.1944H13.2288C13.3098 13.8588 13.4232 14.515 13.569 15.1632C13.7149 15.8113 13.9255 16.4514 14.201 17.0833ZM22.9024 25.7847C23.5343 26.0602 24.1784 26.2789 24.8347 26.441C25.4909 26.603 26.1512 26.7083 26.8156 26.7569V24.6181L24.5308 24.1562L22.9024 25.7847Z" fill="#16A34A"/>
</svg>
