<svg width="40" height="40" viewBox="0 0 40 40" fill="none" xmlns="http://www.w3.org/2000/svg">
<rect width="40" height="40" rx="20" fill="#008186" fill-opacity="0.1"/>
<path d="M26.0624 17.6455L23.1249 14.708L21.3541 16.458L19.5833 14.708L21.9374 12.333C22.1041 12.1663 22.2916 12.0448 22.4999 11.9684C22.7083 11.892 22.9166 11.8538 23.1249 11.8538C23.3471 11.8538 23.5589 11.892 23.7603 11.9684C23.9617 12.0448 24.1388 12.1663 24.2916 12.333L26.0624 14.1038C26.3124 14.34 26.4964 14.6143 26.6145 14.9268C26.7326 15.2393 26.7916 15.5552 26.7916 15.8747C26.7916 16.1941 26.7326 16.5066 26.6145 16.8122C26.4964 17.1177 26.3124 17.3955 26.0624 17.6455ZM14.5833 21.4788C14.3333 21.2288 14.2083 20.9337 14.2083 20.5934C14.2083 20.2531 14.3333 19.958 14.5833 19.708L16.6249 17.6455L18.3958 19.4163L16.3333 21.4788C16.0971 21.7288 15.8089 21.8538 15.4687 21.8538C15.1284 21.8538 14.8333 21.7288 14.5833 21.4788ZM13.6874 27.6663C13.5346 27.4997 13.4166 27.3156 13.3333 27.1143C13.2499 26.9129 13.2083 26.7011 13.2083 26.4788C13.2083 26.2566 13.2464 26.0448 13.3228 25.8434C13.3992 25.642 13.5208 25.458 13.6874 25.2913L19.5833 19.4163L16.9374 16.7497C16.6874 16.5136 16.5624 16.2254 16.5624 15.8851C16.5624 15.5448 16.6874 15.2497 16.9374 14.9997C17.1735 14.7497 17.4652 14.6247 17.8124 14.6247C18.1596 14.6247 18.4583 14.7497 18.7083 14.9997L21.3541 17.6455L22.5416 16.458L24.8749 18.833C25.0416 18.9997 25.1249 19.1941 25.1249 19.4163C25.1249 19.6386 25.0416 19.833 24.8749 19.9997C24.7083 20.1663 24.5138 20.2497 24.2916 20.2497C24.0694 20.2497 23.8749 20.1663 23.7083 19.9997L16.0416 27.6663C15.8749 27.833 15.6909 27.9545 15.4895 28.0309C15.2881 28.1073 15.0833 28.1455 14.8749 28.1455C14.6666 28.1455 14.4583 28.1038 14.2499 28.0205C14.0416 27.9372 13.8541 27.8191 13.6874 27.6663Z" fill="#008186"/>
</svg>
