<svg width="18" height="22" viewBox="0 0 18 22" fill="none" xmlns="http://www.w3.org/2000/svg">
<path d="M14.9625 17.75C13.4 17.75 11.8563 17.4094 10.3313 16.7281C8.80625 16.0469 7.41875 15.0812 6.16875 13.8312C4.91875 12.5812 3.95312 11.1937 3.27188 9.66875C2.59063 8.14375 2.25 6.6 2.25 5.0375C2.25 4.8125 2.325 4.625 2.475 4.475C2.625 4.325 2.8125 4.25 3.0375 4.25H6.075C6.25 4.25 6.40625 4.30937 6.54375 4.42812C6.68125 4.54687 6.7625 4.6875 6.7875 4.85L7.275 7.475C7.3 7.675 7.29375 7.84375 7.25625 7.98125C7.21875 8.11875 7.15 8.2375 7.05 8.3375L5.23125 10.175C5.48125 10.6375 5.77813 11.0844 6.12188 11.5156C6.46563 11.9469 6.84375 12.3625 7.25625 12.7625C7.64375 13.15 8.05 13.5094 8.475 13.8406C8.9 14.1719 9.35 14.475 9.825 14.75L11.5875 12.9875C11.7 12.875 11.8469 12.7906 12.0281 12.7344C12.2094 12.6781 12.3875 12.6625 12.5625 12.6875L15.15 13.2125C15.325 13.2625 15.4688 13.3531 15.5813 13.4844C15.6938 13.6156 15.75 13.7625 15.75 13.925V16.9625C15.75 17.1875 15.675 17.375 15.525 17.525C15.375 17.675 15.1875 17.75 14.9625 17.75ZM4.51875 8.75L5.75625 7.5125L5.4375 5.75H3.76875C3.83125 6.2625 3.91875 6.76875 4.03125 7.26875C4.14375 7.76875 4.30625 8.2625 4.51875 8.75ZM11.2313 15.4625C11.7188 15.675 12.2156 15.8437 12.7219 15.9687C13.2281 16.0937 13.7375 16.175 14.25 16.2125V14.5625L12.4875 14.2062L11.2313 15.4625Z" fill="#64748B"/>
</svg>
