<svg width="18" height="22" viewBox="0 0 18 22" fill="none" xmlns="http://www.w3.org/2000/svg">
<path d="M2.25 17.75V16.25H3.75V5.75C3.75 5.3375 3.89688 4.98437 4.19063 4.69062C4.48438 4.39687 4.8375 4.25 5.25 4.25H12.75C13.1625 4.25 13.5156 4.39687 13.8094 4.69062C14.1031 4.98437 14.25 5.3375 14.25 5.75V16.25H15.75V17.75H2.25ZM12.75 16.25V5.75H5.25V16.25H12.75ZM10.5 11.75C10.7125 11.75 10.8906 11.6781 11.0344 11.5344C11.1781 11.3906 11.25 11.2125 11.25 11C11.25 10.7875 11.1781 10.6094 11.0344 10.4656C10.8906 10.3219 10.7125 10.25 10.5 10.25C10.2875 10.25 10.1094 10.3219 9.96563 10.4656C9.82188 10.6094 9.75 10.7875 9.75 11C9.75 11.2125 9.82188 11.3906 9.96563 11.5344C10.1094 11.6781 10.2875 11.75 10.5 11.75Z" fill="#008186"/>
</svg>
