<svg width="41" height="40" viewBox="0 0 41 40" fill="none" xmlns="http://www.w3.org/2000/svg">
<rect width="40.02" height="40" rx="8" fill="#008186" fill-opacity="0.1"/>
<path d="M10.2878 27.7773V18.0551C10.2878 17.5204 10.4782 17.0626 10.859 16.6819C11.2398 16.3011 11.6976 16.1107 12.2323 16.1107H15.149V14.1662C15.149 13.6315 15.3393 13.1738 15.7201 12.793C16.1009 12.4122 16.5587 12.2218 17.0934 12.2218H22.9267C23.4615 12.2218 23.9192 12.4122 24.3 12.793C24.6808 13.1738 24.8712 13.6315 24.8712 14.1662V16.1107H27.7878C28.3226 16.1107 28.7803 16.3011 29.1611 16.6819C29.5419 17.0626 29.7323 17.5204 29.7323 18.0551V27.7773H10.2878ZM16.1212 22.9162V23.8885H14.1767V22.9162H12.2323V25.8329H27.7878V22.9162H25.8434V23.8885H23.899V22.9162H16.1212ZM12.2323 18.0551V20.9718H14.1767V19.9996H16.1212V20.9718H23.899V19.9996H25.8434V20.9718H27.7878V18.0551H12.2323ZM17.0934 16.1107H22.9267V14.1662H17.0934V16.1107Z" fill="#008186"/>
</svg>
