<svg width="44" height="44" viewBox="0 0 44 44" fill="none" xmlns="http://www.w3.org/2000/svg">
<g filter="url(#filter0_d_2892_276)">
<rect x="2" y="1" width="40" height="40" rx="20" fill="white" shape-rendering="crispEdges"/>
<rect x="2.5" y="1.5" width="39" height="39" rx="19.5" stroke="#E2E8F0" shape-rendering="crispEdges"/>
<path d="M21.9583 25.9997C22.25 25.9997 22.4965 25.899 22.6979 25.6976C22.8993 25.4962 23 25.2497 23 24.958C23 24.6663 22.8993 24.4198 22.6979 24.2184C22.4965 24.017 22.25 23.9163 21.9583 23.9163C21.6666 23.9163 21.4201 24.017 21.2187 24.2184C21.0173 24.4198 20.9166 24.6663 20.9166 24.958C20.9166 25.2497 21.0173 25.4962 21.2187 25.6976C21.4201 25.899 21.6666 25.9997 21.9583 25.9997ZM21.2083 22.7913H22.75C22.75 22.333 22.802 21.9719 22.9062 21.708C23.0104 21.4441 23.3055 21.083 23.7916 20.6247C24.1527 20.2636 24.4375 19.9198 24.6458 19.5934C24.8541 19.267 24.9583 18.8747 24.9583 18.4163C24.9583 17.6386 24.6736 17.0413 24.1041 16.6247C23.5347 16.208 22.8611 15.9997 22.0833 15.9997C21.2916 15.9997 20.6493 16.208 20.1562 16.6247C19.6632 17.0413 19.3194 17.5413 19.125 18.1247L20.5 18.6663C20.5694 18.4163 20.7257 18.1455 20.9687 17.8538C21.2118 17.5622 21.5833 17.4163 22.0833 17.4163C22.5277 17.4163 22.8611 17.5379 23.0833 17.7809C23.3055 18.024 23.4166 18.2913 23.4166 18.583C23.4166 18.8608 23.3333 19.1212 23.1666 19.3643C23 19.6073 22.7916 19.833 22.5416 20.0413C21.9305 20.583 21.5555 20.9927 21.4166 21.2705C21.2777 21.5483 21.2083 22.0552 21.2083 22.7913ZM22 29.333C20.8472 29.333 19.7638 29.1143 18.75 28.6768C17.7361 28.2393 16.8541 27.6455 16.1041 26.8955C15.3541 26.1455 14.7604 25.2636 14.3229 24.2497C13.8854 23.2358 13.6666 22.1525 13.6666 20.9997C13.6666 19.8469 13.8854 18.7636 14.3229 17.7497C14.7604 16.7358 15.3541 15.8538 16.1041 15.1038C16.8541 14.3538 17.7361 13.7601 18.75 13.3226C19.7638 12.8851 20.8472 12.6663 22 12.6663C23.1527 12.6663 24.2361 12.8851 25.25 13.3226C26.2638 13.7601 27.1458 14.3538 27.8958 15.1038C28.6458 15.8538 29.2395 16.7358 29.677 17.7497C30.1145 18.7636 30.3333 19.8469 30.3333 20.9997C30.3333 22.1525 30.1145 23.2358 29.677 24.2497C29.2395 25.2636 28.6458 26.1455 27.8958 26.8955C27.1458 27.6455 26.2638 28.2393 25.25 28.6768C24.2361 29.1143 23.1527 29.333 22 29.333ZM22 27.6663C23.8611 27.6663 25.4375 27.0205 26.7291 25.7288C28.0208 24.4372 28.6666 22.8608 28.6666 20.9997C28.6666 19.1386 28.0208 17.5622 26.7291 16.2705C25.4375 14.9788 23.8611 14.333 22 14.333C20.1388 14.333 18.5625 14.9788 17.2708 16.2705C15.9791 17.5622 15.3333 19.1386 15.3333 20.9997C15.3333 22.8608 15.9791 24.4372 17.2708 25.7288C18.5625 27.0205 20.1388 27.6663 22 27.6663Z" fill="#0F172A"/>
</g>
<defs>
<filter id="filter0_d_2892_276" x="0" y="0" width="44" height="44" filterUnits="userSpaceOnUse" color-interpolation-filters="sRGB">
<feFlood flood-opacity="0" result="BackgroundImageFix"/>
<feColorMatrix in="SourceAlpha" type="matrix" values="0 0 0 0 0 0 0 0 0 0 0 0 0 0 0 0 0 0 127 0" result="hardAlpha"/>
<feOffset dy="1"/>
<feGaussianBlur stdDeviation="1"/>
<feComposite in2="hardAlpha" operator="out"/>
<feColorMatrix type="matrix" values="0 0 0 0 0 0 0 0 0 0 0 0 0 0 0 0 0 0 0.05 0"/>
<feBlend mode="normal" in2="BackgroundImageFix" result="effect1_dropShadow_2892_276"/>
<feBlend mode="normal" in="SourceGraphic" in2="effect1_dropShadow_2892_276" result="shape"/>
</filter>
</defs>
</svg>
