<svg width="18" height="22" viewBox="0 0 18 22" fill="none" xmlns="http://www.w3.org/2000/svg">
<path d="M9 11C9.4125 11 9.76563 10.8531 10.0594 10.5594C10.3531 10.2656 10.5 9.9125 10.5 9.5C10.5 9.0875 10.3531 8.73438 10.0594 8.44062C9.76563 8.14687 9.4125 8 9 8C8.5875 8 8.23438 8.14687 7.94063 8.44062C7.64688 8.73438 7.5 9.0875 7.5 9.5C7.5 9.9125 7.64688 10.2656 7.94063 10.5594C8.23438 10.8531 8.5875 11 9 11ZM9 16.5125C10.525 15.1125 11.6562 13.8406 12.3938 12.6969C13.1313 11.5531 13.5 10.5375 13.5 9.65C13.5 8.2875 13.0656 7.17188 12.1969 6.30312C11.3281 5.43437 10.2625 5 9 5C7.7375 5 6.67188 5.43437 5.80313 6.30312C4.93438 7.17188 4.5 8.2875 4.5 9.65C4.5 10.5375 4.86875 11.5531 5.60625 12.6969C6.34375 13.8406 7.475 15.1125 9 16.5125ZM9 18.5C6.9875 16.7875 5.48438 15.1969 4.49063 13.7281C3.49688 12.2594 3 10.9 3 9.65C3 7.775 3.60312 6.28125 4.80938 5.16875C6.01563 4.05625 7.4125 3.5 9 3.5C10.5875 3.5 11.9844 4.05625 13.1906 5.16875C14.3969 6.28125 15 7.775 15 9.65C15 10.9 14.5031 12.2594 13.5094 13.7281C12.5156 15.1969 11.0125 16.7875 9 18.5Z" fill="#008186"/>
</svg>
