<svg width="15" height="20" viewBox="0 0 15 20" fill="none" xmlns="http://www.w3.org/2000/svg">
<path d="M3.12112 15.5557C2.81557 15.5557 2.55399 15.4469 2.3364 15.2293C2.11881 15.0117 2.01001 14.7501 2.01001 14.4446V6.66677C2.01001 6.36122 2.11881 6.09964 2.3364 5.88205C2.55399 5.66446 2.81557 5.55566 3.12112 5.55566H3.67668V4.44455H4.78779V5.55566H9.23223V4.44455H10.3433V5.55566H10.8989C11.2045 5.55566 11.466 5.66446 11.6836 5.88205C11.9012 6.09964 12.01 6.36122 12.01 6.66677V14.4446C12.01 14.7501 11.9012 15.0117 11.6836 15.2293C11.466 15.4469 11.2045 15.5557 10.8989 15.5557H3.12112ZM3.12112 14.4446H10.8989V8.889H3.12112V14.4446ZM3.12112 7.77789H10.8989V6.66677H3.12112V7.77789ZM7.01001 11.1112C6.8526 11.1112 6.72066 11.058 6.61418 10.9515C6.5077 10.845 6.45445 10.7131 6.45445 10.5557C6.45445 10.3983 6.5077 10.2663 6.61418 10.1598C6.72066 10.0533 6.8526 10.0001 7.01001 10.0001C7.16742 10.0001 7.29936 10.0533 7.40584 10.1598C7.51232 10.2663 7.56557 10.3983 7.56557 10.5557C7.56557 10.7131 7.51232 10.845 7.40584 10.9515C7.29936 11.058 7.16742 11.1112 7.01001 11.1112ZM4.78779 11.1112C4.63038 11.1112 4.49844 11.058 4.39195 10.9515C4.28547 10.845 4.23223 10.7131 4.23223 10.5557C4.23223 10.3983 4.28547 10.2663 4.39195 10.1598C4.49844 10.0533 4.63038 10.0001 4.78779 10.0001C4.94519 10.0001 5.07714 10.0533 5.18362 10.1598C5.2901 10.2663 5.34334 10.3983 5.34334 10.5557C5.34334 10.7131 5.2901 10.845 5.18362 10.9515C5.07714 11.058 4.94519 11.1112 4.78779 11.1112ZM9.23223 11.1112C9.07482 11.1112 8.94288 11.058 8.8364 10.9515C8.72992 10.845 8.67668 10.7131 8.67668 10.5557C8.67668 10.3983 8.72992 10.2663 8.8364 10.1598C8.94288 10.0533 9.07482 10.0001 9.23223 10.0001C9.38964 10.0001 9.52158 10.0533 9.62807 10.1598C9.73455 10.2663 9.78779 10.3983 9.78779 10.5557C9.78779 10.7131 9.73455 10.845 9.62807 10.9515C9.52158 11.058 9.38964 11.1112 9.23223 11.1112ZM7.01001 13.3334C6.8526 13.3334 6.72066 13.2802 6.61418 13.1737C6.5077 13.0672 6.45445 12.9353 6.45445 12.7779C6.45445 12.6205 6.5077 12.4885 6.61418 12.3821C6.72066 12.2756 6.8526 12.2223 7.01001 12.2223C7.16742 12.2223 7.29936 12.2756 7.40584 12.3821C7.51232 12.4885 7.56557 12.6205 7.56557 12.7779C7.56557 12.9353 7.51232 13.0672 7.40584 13.1737C7.29936 13.2802 7.16742 13.3334 7.01001 13.3334ZM4.78779 13.3334C4.63038 13.3334 4.49844 13.2802 4.39195 13.1737C4.28547 13.0672 4.23223 12.9353 4.23223 12.7779C4.23223 12.6205 4.28547 12.4885 4.39195 12.3821C4.49844 12.2756 4.63038 12.2223 4.78779 12.2223C4.94519 12.2223 5.07714 12.2756 5.18362 12.3821C5.2901 12.4885 5.34334 12.6205 5.34334 12.7779C5.34334 12.9353 5.2901 13.0672 5.18362 13.1737C5.07714 13.2802 4.94519 13.3334 4.78779 13.3334ZM9.23223 13.3334C9.07482 13.3334 8.94288 13.2802 8.8364 13.1737C8.72992 13.0672 8.67668 12.9353 8.67668 12.7779C8.67668 12.6205 8.72992 12.4885 8.8364 12.3821C8.94288 12.2756 9.07482 12.2223 9.23223 12.2223C9.38964 12.2223 9.52158 12.2756 9.62807 12.3821C9.73455 12.4885 9.78779 12.6205 9.78779 12.7779C9.78779 12.9353 9.73455 13.0672 9.62807 13.1737C9.52158 13.2802 9.38964 13.3334 9.23223 13.3334Z" fill="#64748B"/>
</svg>
