<svg width="41" height="40" viewBox="0 0 41 40" fill="none" xmlns="http://www.w3.org/2000/svg">
<rect width="40.02" height="40" rx="8" fill="#F1F5F9"/>
<path d="M19.0378 29.7227V25.6879L15.8781 28.799L14.517 27.4379L19.0378 22.9171V20.9727H17.0934L12.5726 25.4935L11.2115 24.1324L14.3226 20.9727H10.2878V19.0282H14.3226L11.2115 15.8685L12.5726 14.5074L17.0934 19.0282H19.0378V17.0838L14.517 12.5629L15.8781 11.2018L19.0378 14.3129V10.2782H20.9823V14.3129L24.142 11.2018L25.5031 12.5629L20.9823 17.0838V19.0282H22.9267L27.4476 14.5074L28.8087 15.8685L25.6976 19.0282H29.7323V20.9727H25.6976L28.8087 24.1324L27.4476 25.4935L22.9267 20.9727H20.9823V22.9171L25.5031 27.4379L24.142 28.799L20.9823 25.6879V29.7227H19.0378Z" fill="#475569"/>
</svg>
