<svg width="41" height="40" viewBox="0 0 41 40" fill="none" xmlns="http://www.w3.org/2000/svg">
<rect width="40.02" height="40" rx="8" fill="#008186" fill-opacity="0.1"/>
<path d="M27.083 17.2539L23.6559 13.8268L21.5899 15.8685L19.5239 13.8268L22.2705 11.056C22.4649 10.8615 22.6836 10.7198 22.9267 10.6306C23.1698 10.5415 23.4128 10.497 23.6559 10.497C23.9151 10.497 24.1622 10.5415 24.3972 10.6306C24.6321 10.7198 24.8387 10.8615 25.017 11.056L27.083 13.122C27.3746 13.3974 27.5893 13.7174 27.7271 14.082C27.8648 14.4466 27.9336 14.8152 27.9336 15.1879C27.9336 15.5606 27.8648 15.9252 27.7271 16.2817C27.5893 16.6382 27.3746 16.9622 27.083 17.2539ZM13.6906 21.7261C13.3989 21.4345 13.2531 21.0901 13.2531 20.6931C13.2531 20.2962 13.3989 19.9518 13.6906 19.6602L16.0725 17.2539L18.1385 19.3199L15.7323 21.7261C15.4568 22.0178 15.1206 22.1636 14.7236 22.1636C14.3266 22.1636 13.9823 22.0178 13.6906 21.7261ZM12.6455 28.9449C12.4672 28.7504 12.3295 28.5357 12.2323 28.3008C12.135 28.0658 12.0864 27.8187 12.0864 27.5595C12.0864 27.3002 12.131 27.0531 12.2201 26.8181C12.3092 26.5832 12.451 26.3685 12.6455 26.174L19.5239 19.3199L16.4371 16.2088C16.1455 15.9333 15.9996 15.5971 15.9996 15.2001C15.9996 14.8031 16.1455 14.4588 16.4371 14.1671C16.7126 13.8754 17.0529 13.7296 17.458 13.7296C17.863 13.7296 18.2114 13.8754 18.5031 14.1671L21.5899 17.2539L22.9753 15.8685L25.6975 18.6393C25.892 18.8338 25.9892 19.0606 25.9892 19.3199C25.9892 19.5791 25.892 19.806 25.6975 20.0004C25.5031 20.1949 25.2762 20.2921 25.017 20.2921C24.7577 20.2921 24.5309 20.1949 24.3364 20.0004L15.392 28.9449C15.1975 29.1393 14.9828 29.2811 14.7479 29.3702C14.5129 29.4593 14.2739 29.5039 14.0309 29.5039C13.7878 29.5039 13.5448 29.4553 13.3017 29.3581C13.0586 29.2609 12.8399 29.1231 12.6455 28.9449Z" fill="#008186"/>
</svg>
