<svg width="40" height="40" viewBox="0 0 40 40" fill="none" xmlns="http://www.w3.org/2000/svg">
<rect width="40" height="40" rx="20" fill="#E2E8F0"/>
<path d="M20 20C18.625 20 17.4479 19.5104 16.4688 18.5312C15.4896 17.5521 15 16.375 15 15C15 13.625 15.4896 12.4479 16.4688 11.4688C17.4479 10.4896 18.625 10 20 10C21.375 10 22.5521 10.4896 23.5312 11.4688C24.5104 12.4479 25 13.625 25 15C25 16.375 24.5104 17.5521 23.5312 18.5312C22.5521 19.5104 21.375 20 20 20ZM10 30V26.5C10 25.7917 10.1823 25.1406 10.5469 24.5469C10.9115 23.9531 11.3958 23.5 12 23.1875C13.2917 22.5417 14.6042 22.0573 15.9375 21.7344C17.2708 21.4115 18.625 21.25 20 21.25C21.375 21.25 22.7292 21.4115 24.0625 21.7344C25.3958 22.0573 26.7083 22.5417 28 23.1875C28.6042 23.5 29.0885 23.9531 29.4531 24.5469C29.8177 25.1406 30 25.7917 30 26.5V30H10ZM12.5 27.5H27.5V26.5C27.5 26.2708 27.4427 26.0625 27.3281 25.875C27.2135 25.6875 27.0625 25.5417 26.875 25.4375C25.75 24.875 24.6146 24.4531 23.4688 24.1719C22.3229 23.8906 21.1667 23.75 20 23.75C18.8333 23.75 17.6771 23.8906 16.5312 24.1719C15.3854 24.4531 14.25 24.875 13.125 25.4375C12.9375 25.5417 12.7865 25.6875 12.6719 25.875C12.5573 26.0625 12.5 26.2708 12.5 26.5V27.5ZM20 17.5C20.6875 17.5 21.276 17.2552 21.7656 16.7656C22.2552 16.276 22.5 15.6875 22.5 15C22.5 14.3125 22.2552 13.724 21.7656 13.2344C21.276 12.7448 20.6875 12.5 20 12.5C19.3125 12.5 18.724 12.7448 18.2344 13.2344C17.7448 13.724 17.5 14.3125 17.5 15C17.5 15.6875 17.7448 16.276 18.2344 16.7656C18.724 17.2552 19.3125 17.5 20 17.5Z" fill="#94A3B8"/>
</svg>
