<svg width="41" height="48" viewBox="0 0 41 48" fill="none" xmlns="http://www.w3.org/2000/svg">
<path d="M12.2305 30.7974V28.8538H14.1741V22.0511C14.1741 20.7067 14.579 19.5122 15.3889 18.4675C16.1987 17.4228 17.2515 16.7385 18.5473 16.4145V15.7343C18.5473 15.3293 18.689 14.9852 18.9725 14.7017C19.2559 14.4183 19.6001 14.2765 20.005 14.2765C20.4099 14.2765 20.7541 14.4183 21.0376 14.7017C21.321 14.9852 21.4627 15.3293 21.4627 15.7343V16.4145C22.7585 16.7385 23.8113 17.4228 24.6211 18.4675C25.431 19.5122 25.8359 20.7067 25.8359 22.0511V28.8538H27.7795V30.7974H12.2305ZM20.005 33.7129C19.4705 33.7129 19.0129 33.5226 18.6323 33.1419C18.2517 32.7613 18.0614 32.3038 18.0614 31.7693H21.9486C21.9486 32.3038 21.7583 32.7613 21.3777 33.1419C20.9971 33.5226 20.5395 33.7129 20.005 33.7129ZM16.1177 28.8538H23.8923V22.0511C23.8923 20.9821 23.5117 20.067 22.7504 19.3057C21.9891 18.5444 21.074 18.1638 20.005 18.1638C18.936 18.1638 18.0209 18.5444 17.2596 19.3057C16.4984 20.067 16.1177 20.9821 16.1177 22.0511V28.8538Z" fill="#0F172A"/>
</svg>
