<svg width="18" height="28" viewBox="0 0 18 28" fill="none" xmlns="http://www.w3.org/2000/svg">
<path d="M3.75 11H14.25V9.5H3.75V11ZM3.75 21.5C3.3375 21.5 2.98438 21.3531 2.69063 21.0594C2.39687 20.7656 2.25 20.4125 2.25 20V9.5C2.25 9.0875 2.39687 8.73437 2.69063 8.44062C2.98438 8.14687 3.3375 8 3.75 8H4.5V6.5H6V8H12V6.5H13.5V8H14.25C14.6625 8 15.0156 8.14687 15.3094 8.44062C15.6031 8.73437 15.75 9.0875 15.75 9.5V13.7562C15.5125 13.6437 15.2688 13.55 15.0188 13.475C14.7688 13.4 14.5125 13.3438 14.25 13.3062V12.5H3.75V20H8.475C8.5625 20.275 8.66563 20.5375 8.78438 20.7875C8.90313 21.0375 9.04375 21.275 9.20625 21.5H3.75ZM13.5 22.25C12.4625 22.25 11.5781 21.8844 10.8469 21.1531C10.1156 20.4219 9.75 19.5375 9.75 18.5C9.75 17.4625 10.1156 16.5781 10.8469 15.8469C11.5781 15.1156 12.4625 14.75 13.5 14.75C14.5375 14.75 15.4219 15.1156 16.1531 15.8469C16.8844 16.5781 17.25 17.4625 17.25 18.5C17.25 19.5375 16.8844 20.4219 16.1531 21.1531C15.4219 21.8844 14.5375 22.25 13.5 22.25ZM14.7563 20.2812L15.2813 19.7562L13.875 18.35V16.25H13.125V18.65L14.7563 20.2812Z" fill="#D97706"/>
</svg>
