<svg width="40" height="40" viewBox="0 0 40 40" fill="none" xmlns="http://www.w3.org/2000/svg">
<rect width="40" height="40" rx="20" fill="#F1F5F9"/>
<path d="M13.1944 26.8056V13.1944C13.1944 13.1944 13.1944 13.555 13.1944 14.276C13.1944 14.9971 13.1944 15.9329 13.1944 17.0833V22.9167C13.1944 24.0671 13.1944 25.0029 13.1944 25.724C13.1944 26.445 13.1944 26.8056 13.1944 26.8056ZM13.1944 28.75C12.6597 28.75 12.202 28.5596 11.8212 28.1788C11.4404 27.798 11.25 27.3403 11.25 26.8056V13.1944C11.25 12.6597 11.4404 12.202 11.8212 11.8212C12.202 11.4404 12.6597 11.25 13.1944 11.25H26.8056C27.3403 11.25 27.798 11.4404 28.1788 11.8212C28.5596 12.202 28.75 12.6597 28.75 13.1944V15.625H26.8056V13.1944H13.1944V26.8056H26.8056V24.375H28.75V26.8056C28.75 27.3403 28.5596 27.798 28.1788 28.1788C27.798 28.5596 27.3403 28.75 26.8056 28.75H13.1944ZM20.9722 24.8611C20.4375 24.8611 19.9797 24.6707 19.599 24.2899C19.2182 23.9091 19.0278 23.4514 19.0278 22.9167V17.0833C19.0278 16.5486 19.2182 16.0909 19.599 15.7101C19.9797 15.3293 20.4375 15.1389 20.9722 15.1389H27.7778C28.3125 15.1389 28.7703 15.3293 29.151 15.7101C29.5318 16.0909 29.7222 16.5486 29.7222 17.0833V22.9167C29.7222 23.4514 29.5318 23.9091 29.151 24.2899C28.7703 24.6707 28.3125 24.8611 27.7778 24.8611H20.9722ZM27.7778 22.9167V17.0833H20.9722V22.9167H27.7778ZM23.8889 21.4583C24.294 21.4583 24.6383 21.3166 24.9219 21.033C25.2054 20.7494 25.3472 20.4051 25.3472 20C25.3472 19.5949 25.2054 19.2506 24.9219 18.967C24.6383 18.6834 24.294 18.5417 23.8889 18.5417C23.4838 18.5417 23.1395 18.6834 22.8559 18.967C22.5723 19.2506 22.4306 19.5949 22.4306 20C22.4306 20.4051 22.5723 20.7494 22.8559 21.033C23.1395 21.3166 23.4838 21.4583 23.8889 21.4583Z" fill="#008186"/>
</svg>
