<svg width="44" height="44" viewBox="0 0 44 44" fill="none" xmlns="http://www.w3.org/2000/svg">
<g filter="url(#filter0_d_2792_735)">
<rect x="2" y="1" width="40" height="40" rx="20" fill="white" shape-rendering="crispEdges"/>
<rect x="2.5" y="1.5" width="39" height="39" rx="19.5" stroke="#E2E8F0" shape-rendering="crispEdges"/>
<path d="M15.3334 26.834V25.1673H17V19.334C17 18.1812 17.3473 17.1569 18.0417 16.2611C18.7362 15.3652 19.6389 14.7784 20.75 14.5006V13.9173C20.75 13.5701 20.8716 13.275 21.1146 13.0319C21.3577 12.7888 21.6528 12.6673 22 12.6673C22.3473 12.6673 22.6424 12.7888 22.8855 13.0319C23.1285 13.275 23.25 13.5701 23.25 13.9173V14.5006C24.3612 14.7784 25.2639 15.3652 25.9584 16.2611C26.6528 17.1569 27 18.1812 27 19.334V25.1673H28.6667V26.834H15.3334ZM22 29.334C21.5417 29.334 21.1493 29.1708 20.823 28.8444C20.4966 28.518 20.3334 28.1257 20.3334 27.6673H23.6667C23.6667 28.1257 23.5035 28.518 23.1771 28.8444C22.8507 29.1708 22.4584 29.334 22 29.334ZM18.6667 25.1673H25.3334V19.334C25.3334 18.4173 25.007 17.6326 24.3542 16.9798C23.7014 16.327 22.9167 16.0006 22 16.0006C21.0834 16.0006 20.2987 16.327 19.6459 16.9798C18.9931 17.6326 18.6667 18.4173 18.6667 19.334V25.1673Z" fill="#0F172A"/>
<g filter="url(#filter1_d_2792_735)">
<rect x="25" y="10" width="8" height="8" rx="4" fill="#EF4444"/>
</g>
</g>
<defs>
<filter id="filter0_d_2792_735" x="0" y="0" width="44" height="44" filterUnits="userSpaceOnUse" color-interpolation-filters="sRGB">
<feFlood flood-opacity="0" result="BackgroundImageFix"/>
<feColorMatrix in="SourceAlpha" type="matrix" values="0 0 0 0 0 0 0 0 0 0 0 0 0 0 0 0 0 0 127 0" result="hardAlpha"/>
<feOffset dy="1"/>
<feGaussianBlur stdDeviation="1"/>
<feComposite in2="hardAlpha" operator="out"/>
<feColorMatrix type="matrix" values="0 0 0 0 0 0 0 0 0 0 0 0 0 0 0 0 0 0 0.05 0"/>
<feBlend mode="normal" in2="BackgroundImageFix" result="effect1_dropShadow_2792_735"/>
<feBlend mode="normal" in="SourceGraphic" in2="effect1_dropShadow_2792_735" result="shape"/>
</filter>
<filter id="filter1_d_2792_735" x="23" y="8" width="12" height="12" filterUnits="userSpaceOnUse" color-interpolation-filters="sRGB">
<feFlood flood-opacity="0" result="BackgroundImageFix"/>
<feColorMatrix in="SourceAlpha" type="matrix" values="0 0 0 0 0 0 0 0 0 0 0 0 0 0 0 0 0 0 127 0" result="hardAlpha"/>
<feMorphology radius="2" operator="dilate" in="SourceAlpha" result="effect1_dropShadow_2792_735"/>
<feOffset/>
<feComposite in2="hardAlpha" operator="out"/>
<feColorMatrix type="matrix" values="0 0 0 0 1 0 0 0 0 1 0 0 0 0 1 0 0 0 1 0"/>
<feBlend mode="normal" in2="BackgroundImageFix" result="effect1_dropShadow_2792_735"/>
<feBlend mode="normal" in="SourceGraphic" in2="effect1_dropShadow_2792_735" result="shape"/>
</filter>
</defs>
</svg>
