<svg width="40" height="40" viewBox="0 0 40 40" fill="none" xmlns="http://www.w3.org/2000/svg">
<rect width="40" height="40" rx="8" fill="#FEF2F2"/>
<path d="M9.30554 28.75L20 10.2778L30.6944 28.75H9.30554ZM12.6597 26.8056H27.3403L20 14.1667L12.6597 26.8056ZM20 25.8333C20.2754 25.8333 20.5064 25.7402 20.6927 25.5538C20.879 25.3675 20.9722 25.1366 20.9722 24.8611C20.9722 24.5856 20.879 24.3547 20.6927 24.1684C20.5064 23.9821 20.2754 23.8889 20 23.8889C19.7245 23.8889 19.4936 23.9821 19.3073 24.1684C19.1209 24.3547 19.0278 24.5856 19.0278 24.8611C19.0278 25.1366 19.1209 25.3675 19.3073 25.5538C19.4936 25.7402 19.7245 25.8333 20 25.8333ZM19.0278 22.9167H20.9722V18.0556H19.0278V22.9167Z" fill="#DC2626"/>
</svg>
