<svg width="32" height="32" viewBox="0 0 32 32" fill="none" xmlns="http://www.w3.org/2000/svg">
<rect x="0.5" y="0.5" width="31" height="31" rx="7.5" fill="white"/>
<rect x="0.5" y="0.5" width="31" height="31" rx="7.5" stroke="#E2E8F0"/>
<path d="M21.5556 12.6675V19.3342C21.5556 19.6398 21.4468 19.9013 21.2292 20.1189C21.0116 20.3365 20.75 20.4453 20.4445 20.4453H11.5556C11.25 20.4453 10.9884 20.3365 10.7708 20.1189C10.5533 19.9013 10.4445 19.6398 10.4445 19.3342V12.6675C10.4445 12.362 10.5533 12.1004 10.7708 11.8828C10.9884 11.6652 11.25 11.5564 11.5556 11.5564H20.4445C20.75 11.5564 21.0116 11.6652 21.2292 11.8828C21.4468 12.1004 21.5556 12.362 21.5556 12.6675ZM11.5556 13.7786H20.4445V12.6675H11.5556V13.7786ZM11.5556 16.0009V19.3342H20.4445V16.0009H11.5556Z" fill="#475569"/>
</svg>
