<svg width="25" height="28" viewBox="0 0 25 28" fill="none" xmlns="http://www.w3.org/2000/svg">
<path d="M5.20445 23.7216C4.66973 23.7216 4.21198 23.5312 3.83119 23.1504C3.4504 22.7696 3.26001 22.3118 3.26001 21.7771V8.16602C3.26001 7.63129 3.4504 7.17354 3.83119 6.79275C4.21198 6.41196 4.66973 6.22157 5.20445 6.22157H6.17668V4.27713H8.12112V6.22157H15.8989V4.27713H17.8433V6.22157H18.8156C19.3503 6.22157 19.808 6.41196 20.1888 6.79275C20.5696 7.17354 20.76 7.63129 20.76 8.16602V13.9993H18.8156V12.0549H5.20445V21.7771H12.01V23.7216H5.20445ZM18.8156 25.666C17.6327 25.666 16.5997 25.2974 15.7166 24.5601C14.8335 23.8228 14.2785 22.8952 14.0517 21.7771H15.5586C15.7693 22.4901 16.1703 23.0734 16.7617 23.5271C17.3532 23.9808 18.0378 24.2077 18.8156 24.2077C19.7554 24.2077 20.5575 23.8755 21.2218 23.2112C21.8862 22.5468 22.2183 21.7447 22.2183 20.8049C22.2183 19.8651 21.8862 19.063 21.2218 18.3987C20.5575 17.7343 19.7554 17.4021 18.8156 17.4021C18.3457 17.4021 17.9082 17.4872 17.5031 17.6573C17.098 17.8275 16.7415 18.0665 16.4336 18.3743H17.8433V19.8327H13.9545V15.9438H15.4128V17.3292C15.8503 16.9079 16.3607 16.5717 16.944 16.3205C17.5274 16.0694 18.1512 15.9438 18.8156 15.9438C20.1605 15.9438 21.3069 16.4178 22.2548 17.3657C23.2027 18.3136 23.6767 19.46 23.6767 20.8049C23.6767 22.1498 23.2027 23.2962 22.2548 24.2441C21.3069 25.1921 20.1605 25.666 18.8156 25.666ZM5.20445 10.1105H18.8156V8.16602H5.20445V10.1105Z" fill="#008186"/>
</svg>
