<svg width="40" height="40" viewBox="0 0 40 40" fill="none" xmlns="http://www.w3.org/2000/svg">
<rect width="40" height="40" rx="12" fill="#008186" fill-opacity="0.1"/>
<path d="M29.7222 14.1662V25.8329C29.7222 26.3676 29.5318 26.8254 29.151 27.2062C28.7702 27.587 28.3124 27.7773 27.7777 27.7773H12.2222C11.6874 27.7773 11.2297 27.587 10.8489 27.2062C10.4681 26.8254 10.2777 26.3676 10.2777 25.8329V14.1662C10.2777 13.6315 10.4681 13.1738 10.8489 12.793C11.2297 12.4122 11.6874 12.2218 12.2222 12.2218H27.7777C28.3124 12.2218 28.7702 12.4122 29.151 12.793C29.5318 13.1738 29.7222 13.6315 29.7222 14.1662ZM12.2222 16.1107H27.7777V14.1662H12.2222V16.1107ZM12.2222 19.9996V25.8329H27.7777V19.9996H12.2222Z" fill="#008186"/>
</svg>
