<svg width="40" height="40" viewBox="0 0 40 40" fill="none" xmlns="http://www.w3.org/2000/svg">
<rect width="40" height="40" rx="12" fill="#F1F5F9"/>
<path d="M21.9444 20.9718C21.1342 20.9718 20.4456 20.6882 19.8785 20.1211C19.3113 19.554 19.0278 18.8653 19.0278 18.0551C19.0278 17.2449 19.3113 16.5563 19.8785 15.9891C20.4456 15.422 21.1342 15.1385 21.9444 15.1385C22.7546 15.1385 23.4433 15.422 24.0104 15.9891C24.5775 16.5563 24.8611 17.2449 24.8611 18.0551C24.8611 18.8653 24.5775 19.554 24.0104 20.1211C23.4433 20.6882 22.7546 20.9718 21.9444 20.9718ZM15.1389 23.8885C14.6042 23.8885 14.1464 23.6981 13.7656 23.3173C13.3848 22.9365 13.1944 22.4787 13.1944 21.944V14.1662C13.1944 13.6315 13.3848 13.1738 13.7656 12.793C14.1464 12.4122 14.6042 12.2218 15.1389 12.2218H28.75C29.2847 12.2218 29.7425 12.4122 30.1233 12.793C30.504 13.1738 30.6944 13.6315 30.6944 14.1662V21.944C30.6944 22.4787 30.504 22.9365 30.1233 23.3173C29.7425 23.6981 29.2847 23.8885 28.75 23.8885H15.1389ZM17.0833 21.944H26.8055C26.8055 21.4093 26.9959 20.9515 27.3767 20.5707C27.7575 20.19 28.2153 19.9996 28.75 19.9996V16.1107C28.2153 16.1107 27.7575 15.9203 27.3767 15.5395C26.9959 15.1587 26.8055 14.701 26.8055 14.1662H17.0833C17.0833 14.701 16.8929 15.1587 16.5121 15.5395C16.1314 15.9203 15.6736 16.1107 15.1389 16.1107V19.9996C15.6736 19.9996 16.1314 20.19 16.5121 20.5707C16.8929 20.9515 17.0833 21.4093 17.0833 21.944ZM27.7778 27.7773H11.25C10.7153 27.7773 10.2575 27.587 9.87672 27.2062C9.49594 26.8254 9.30554 26.3676 9.30554 25.8329V15.1385H11.25V25.8329H27.7778V27.7773Z" fill="#475569"/>
</svg>
