<svg width="25" height="28" viewBox="0 0 25 28" fill="none" xmlns="http://www.w3.org/2000/svg">
<path d="M4.23223 10.1115H19.7878V8.1671H4.23223V10.1115ZM2.28778 8.1671C2.28778 7.63238 2.47817 7.17462 2.85896 6.79384C3.23975 6.41305 3.6975 6.22266 4.23223 6.22266H19.7878C20.3225 6.22266 20.7803 6.41305 21.161 6.79384C21.5418 7.17462 21.7322 7.63238 21.7322 8.1671V14.0004H4.23223V19.8338H8.21834V21.7782H4.23223C3.6975 21.7782 3.23975 21.5878 2.85896 21.207C2.47817 20.8262 2.28778 20.3685 2.28778 19.8338V8.1671ZM14.8781 23.7227L10.7461 19.5907L12.1072 18.2296L14.8781 20.9518L20.3711 15.4588L21.7322 16.8685L14.8781 23.7227ZM4.23223 8.1671V19.8338V19.5907V15.4588V18.2053V14.0004V10.1115V8.1671Z" fill="white"/>
</svg>
