<svg width="40" height="40" viewBox="0 0 40 40" fill="none" xmlns="http://www.w3.org/2000/svg">
<rect width="40" height="40" rx="8" fill="#EFF6FF"/>
<path d="M16.1111 27.7773C15.5764 27.7773 15.1187 27.587 14.7379 27.2062C14.3571 26.8254 14.1667 26.3676 14.1667 25.8329V22.9162H17.0834V20.7287C16.5162 20.6963 15.9775 20.5707 15.467 20.352C14.9566 20.1332 14.4908 19.8051 14.0695 19.3676V18.2982H12.9514L9.79169 15.1385C10.375 14.3931 11.0961 13.8665 11.9549 13.5586C12.8137 13.2507 13.6806 13.0968 14.5556 13.0968C14.9931 13.0968 15.4184 13.1292 15.8316 13.194C16.2448 13.2588 16.6621 13.3804 17.0834 13.5586V12.2218H28.75V24.8607C28.75 25.6709 28.4665 26.3595 27.8993 26.9266C27.3322 27.4938 26.6435 27.7773 25.8334 27.7773H16.1111ZM19.0278 22.9162H24.8611V24.8607C24.8611 25.1361 24.9543 25.367 25.1406 25.5534C25.327 25.7397 25.5579 25.8329 25.8334 25.8329C26.1088 25.8329 26.3397 25.7397 26.5261 25.5534C26.7124 25.367 26.8056 25.1361 26.8056 24.8607V14.1662H19.0278V14.7496L24.8611 20.5829V21.944H23.5L20.7292 19.1732L20.5347 19.3676C20.3079 19.5945 20.0689 19.797 19.8177 19.9753C19.5666 20.1535 19.3033 20.2912 19.0278 20.3885V22.9162ZM13.7778 16.3537H16.0139V18.444C16.2084 18.5736 16.4109 18.6628 16.6215 18.7114C16.8322 18.76 17.0509 18.7843 17.2778 18.7843C17.6505 18.7843 17.9867 18.7276 18.2865 18.6141C18.5862 18.5007 18.882 18.2982 19.1736 18.0065L19.3681 17.8121L18.007 16.451C17.5371 15.981 17.0104 15.6286 16.4271 15.3937C15.8438 15.1587 15.2199 15.0412 14.5556 15.0412C14.2315 15.0412 13.9236 15.0655 13.632 15.1141C13.3403 15.1628 13.0486 15.2357 12.757 15.3329L13.7778 16.3537ZM22.9167 24.8607H16.1111V25.8329H23.0625C23.0139 25.6871 22.9775 25.5331 22.9531 25.3711C22.9288 25.2091 22.9167 25.0389 22.9167 24.8607ZM16.1111 25.8329C16.1111 25.6871 16.1111 25.5331 16.1111 25.3711C16.1111 25.2091 16.1111 25.0389 16.1111 24.8607C16.1111 25.0227 16.1111 25.1848 16.1111 25.3468C16.1111 25.5088 16.1111 25.6709 16.1111 25.8329Z" fill="#2563EB"/>
</svg>
