<svg width="41" height="40" viewBox="0 0 41 40" fill="none" xmlns="http://www.w3.org/2000/svg">
<rect width="40.02" height="40" rx="8" fill="#DBEAFE"/>
<path d="M20.01 25.8333C20.3503 25.8333 20.6379 25.7159 20.8729 25.4809C21.1078 25.2459 21.2253 24.9583 21.2253 24.6181C21.2253 24.2778 21.1078 23.9902 20.8729 23.7552C20.6379 23.5203 20.3503 23.4028 20.01 23.4028C19.6697 23.4028 19.3821 23.5203 19.1472 23.7552C18.9122 23.9902 18.7947 24.2778 18.7947 24.6181C18.7947 24.9583 18.9122 25.2459 19.1472 25.4809C19.3821 25.7159 19.6697 25.8333 20.01 25.8333ZM19.135 22.0903H20.9336C20.9336 21.5069 20.9984 21.0775 21.1281 20.8021C21.2577 20.5266 21.5332 20.1782 21.9545 19.7569C22.5216 19.1898 22.9226 18.7159 23.1576 18.3351C23.3925 17.9543 23.51 17.5208 23.51 17.0347C23.51 16.1759 23.2183 15.4832 22.635 14.9566C22.0517 14.43 21.2658 14.1667 20.2774 14.1667C19.3862 14.1667 18.6286 14.3854 18.0048 14.8229C17.381 15.2604 16.9475 15.8681 16.7045 16.6458L18.3086 17.2778C18.422 16.8403 18.6489 16.4878 18.9892 16.2205C19.3295 15.9531 19.7264 15.8194 20.1801 15.8194C20.6176 15.8194 20.9822 15.9369 21.2739 16.1719C21.5656 16.4068 21.7114 16.7188 21.7114 17.1076C21.7114 17.3831 21.6223 17.6748 21.444 17.9826C21.2658 18.2905 20.966 18.6308 20.5447 19.0035C20.01 19.4734 19.6414 19.923 19.4388 20.3524C19.2363 20.7818 19.135 21.3611 19.135 22.0903ZM13.2045 28.75C12.6697 28.75 12.212 28.5596 11.8312 28.1788C11.4504 27.798 11.26 27.3403 11.26 26.8056V13.1944C11.26 12.6597 11.4504 12.202 11.8312 11.8212C12.212 11.4404 12.6697 11.25 13.2045 11.25H26.8156C27.3503 11.25 27.808 11.4404 28.1888 11.8212C28.5696 12.202 28.76 12.6597 28.76 13.1944V26.8056C28.76 27.3403 28.5696 27.798 28.1888 28.1788C27.808 28.5596 27.3503 28.75 26.8156 28.75H13.2045ZM13.2045 26.8056H26.8156V13.1944H13.2045V26.8056Z" fill="#2563EB"/>
</svg>
