<svg width="16" height="20" viewBox="0 0 16 20" fill="none" xmlns="http://www.w3.org/2000/svg">
<path d="M3.46667 16C3.05556 16 2.70833 15.8583 2.425 15.575C2.14167 15.2917 2 14.9444 2 14.5333V5.4C2 5.07778 2.15 4.85278 2.45 4.725C2.75 4.59722 3.01111 4.64444 3.23333 4.86667L4.73333 6.36667L3.83333 7.26667L4.3 7.73333L5.2 6.83333L6.93333 8.56667L6.03333 9.46667L6.5 9.93333L7.4 9.03333L9.13333 10.7667L8.23333 11.6667L8.7 12.1333L9.6 11.2333L11.3333 12.9667L10.4333 13.8667L10.9 14.3333L11.8 13.4333L13.1333 14.7667C13.3556 14.9889 13.4028 15.25 13.275 15.55C13.1472 15.85 12.9222 16 12.6 16H3.46667ZM4 14H9.53333L4 8.46667V14Z" fill="#64748B"/>
</svg>
