<?xml version="1.0" encoding="UTF-8"?>
<svg version="1.1" xmlns="http://www.w3.org/2000/svg" width="600" height="600">
<path d="M0 0 C5.08820988 1.55881574 8.56911786 4.69416898 12.5625 8.0625 C13.87413234 9.16015003 15.18800025 10.25513331 16.50390625 11.34765625 C17.15926235 11.9060019 17.81461845 12.46434755 18.48983383 13.03961277 C21.00670762 15.08778979 21.00670762 15.08778979 24.01617813 16.8086462 C32.33272314 22.04207511 32.33272314 22.04207511 34.08933258 27.19632149 C34.47514063 31.06025822 34.488113 34.8276713 34.36230469 38.69946289 C34.35891439 40.16874919 34.36083041 41.63805578 34.36761475 43.10733032 C34.37104138 47.07335502 34.30079186 51.03497487 34.21672726 54.99998021 C34.14141805 59.15172839 34.13464009 63.30359155 34.12042236 67.45591736 C34.08320818 75.30830596 33.98485655 83.15867608 33.86422849 91.01017803 C33.72983181 99.95309847 33.66405503 108.89611827 33.60388327 117.83979809 C33.47864139 136.22790703 33.25869269 154.6132509 33 173 C49.83 173 66.66 173 84 173 C84 137.36 84 101.72 84 65 C88.90616668 67.80352382 92.33315393 69.92582345 96.4375 73.5 C101.07267846 77.46844416 105.84292883 81.18657066 110.75 84.8125 C117.00064959 89.43958478 123.08341427 94.23155979 129.06933594 99.1965332 C129.67036133 99.69241943 130.27138672 100.18830566 130.890625 100.69921875 C131.77316609 101.44677036 131.77316609 101.44677036 132.6735363 102.20942402 C135.03440372 104.10308592 135.03440372 104.10308592 137.97729683 105.75072765 C146.32800409 110.9690472 146.32800409 110.9690472 148.0965538 116.31408119 C148.49197674 120.38039686 148.51122955 124.29374842 148.39404297 128.37036133 C148.39393203 129.91198529 148.39909133 131.45361719 148.40908813 132.99520874 C148.42102198 137.15966724 148.35896625 141.32003499 148.28259039 145.48368669 C148.21474045 149.84717483 148.21381888 154.21069667 148.20510864 158.57463074 C148.18123523 165.89609334 148.1137374 173.21604281 148.01513672 180.53686523 C147.87616098 190.86219275 147.81760241 201.18684556 147.77433562 211.51295435 C147.73774335 219.53607944 147.67892779 227.55906625 147.6171875 235.58203125 C147.61084463 236.44198141 147.60450175 237.30193158 147.59796667 238.18794084 C147.56032552 243.12789987 147.51157399 248.06751647 147.44573593 253.00718307 C147.4271056 254.50353827 147.41175496 255.9999384 147.39990997 257.49636269 C147.38298255 259.53741228 147.35247544 261.57833586 147.32125854 263.61921692 C147.30064519 265.33281009 147.30064519 265.33281009 147.2796154 267.08102131 C147.00382966 269.96002115 146.58655481 271.60812054 145 274 C139.73477033 277.69381581 134.52522489 277.43680922 128.34375 277.3984375 C127.32325562 277.40130768 126.30276123 277.40417786 125.25134277 277.40713501 C123.09968509 277.40917108 120.94800871 277.40367327 118.79638672 277.39111328 C115.51097048 277.37505363 112.22678442 277.39097802 108.94140625 277.41015625 C106.84635146 277.40817374 104.75129744 277.4043299 102.65625 277.3984375 C101.67797241 277.40451019 100.69969482 277.41058289 99.69177246 277.4168396 C94.40317044 277.36254742 90.52410409 277.05889087 86 274 C83.68881837 270.53322756 83.75582104 269.23668119 83.77294922 265.15161133 C83.77310028 263.9505928 83.77325134 262.74957428 83.77340698 261.51216125 C83.78372955 260.21521835 83.79405212 258.91827545 83.8046875 257.58203125 C83.80841845 256.24110627 83.81126503 254.90017856 83.81326294 253.55924988 C83.82089301 250.03285167 83.84053597 246.50661866 83.8626709 242.98028564 C83.8831429 239.38076045 83.89237716 235.78120772 83.90234375 232.18164062 C83.92272093 225.12094794 83.96186836 218.06070866 84 211 C67.17 211 50.34 211 33 211 C33.05800781 215.18945312 33.11601562 219.37890625 33.17578125 223.6953125 C33.20795886 227.04562638 33.23506453 230.39589633 33.25875092 233.74627686 C33.2851045 237.27778364 33.32029107 240.8086859 33.37719727 244.33984375 C33.44214979 248.39589127 33.46622357 252.45130323 33.48828125 256.5078125 C33.51408768 257.76739777 33.5398941 259.02698303 33.56648254 260.32473755 C33.56960724 270.09436321 33.56960724 270.09436321 30.65698242 273.78076172 C27.20180362 276.66669164 24.79576282 277.12442554 20.44018555 277.16113281 C19.51880295 277.17074036 18.59742035 277.1803479 17.64811707 277.19024658 C16.65435562 277.19449646 15.66059418 277.19874634 14.63671875 277.203125 C13.61197952 277.20882507 12.5872403 277.21452515 11.53144836 277.22039795 C9.36187777 277.22984715 7.19229283 277.23638161 5.02270508 277.24023438 C1.71084404 277.24993165 -1.60039422 277.28095281 -4.91210938 277.3125 C-7.02082965 277.31903106 -9.12955436 277.32428113 -11.23828125 277.328125 C-12.22597 277.3404718 -13.21365875 277.3528186 -14.23127747 277.36553955 C-19.55502795 277.34837536 -23.44892231 277.09355485 -28 274 C-30.04721312 270.92918032 -30.25381075 270.27743139 -30.29078865 266.80967903 C-30.30463793 265.95132426 -30.31848721 265.0929695 -30.33275616 264.20860398 C-30.33784439 263.26514583 -30.34293263 262.32168768 -30.34817505 261.34963989 C-30.3676719 259.84659736 -30.3676719 259.84659736 -30.38756263 258.31319034 C-30.42847559 254.93945718 -30.45482607 251.56577236 -30.48095703 248.19189453 C-30.50657486 245.77907131 -30.5328457 243.36625495 -30.5597229 240.95344543 C-30.64327869 233.01334455 -30.70387909 225.07315663 -30.7578125 217.1328125 C-30.76242766 216.45719086 -30.76704282 215.78156922 -30.77179784 215.08547419 C-30.86271829 201.66132613 -30.93972009 188.23711205 -30.99325752 174.81276131 C-31.00523516 171.86117596 -31.01740652 168.9095915 -31.02978516 165.95800781 C-31.03285112 165.2244325 -31.03591708 164.4908572 -31.03907596 163.73505233 C-31.09043665 151.86753029 -31.20413283 140.00143388 -31.34271576 128.13464405 C-31.48393928 115.94054567 -31.56416796 103.74718219 -31.58675659 91.55227935 C-31.60104307 84.70915178 -31.64222405 77.86849771 -31.75281143 71.0261879 C-31.85688705 64.58229375 -31.87882146 58.14135724 -31.84630966 51.69667625 C-31.84751367 49.33794357 -31.87590823 46.97903567 -31.9342041 44.62102318 C-32.37204721 25.92542988 -32.37204721 25.92542988 -26.57540512 19.82854843 C-23.29998391 16.93616119 -19.80651997 14.55183426 -16.07152343 12.29541373 C-12.71126364 10.19409708 -9.66203073 7.71205025 -6.5625 5.25 C-5.50303975 4.44042923 -4.44198725 3.63293531 -3.37890625 2.828125 C-1.16668597 1.20995646 -1.16668597 1.20995646 0 0 Z " fill="#FFFFFF" transform="translate(299,218)"/>
<path d="M0 0 C2.75117926 1.39597697 5.04915775 3.24712164 7.4375 5.1875 C8.47293945 5.99574219 8.47293945 5.99574219 9.52929688 6.8203125 C11.7029922 8.52694909 13.85410745 10.25856887 16 12 C16.67305176 12.54479004 17.34610352 13.08958008 18.03955078 13.65087891 C20.69815089 15.80729176 23.35280405 17.96827589 25.99780273 20.14135742 C30.57468086 23.89003324 35.24526927 27.48038487 40 31 C46.14507275 35.54879409 52.09517049 40.28919292 58 45.14453125 C62.57743172 48.89051541 67.24626266 52.48112021 72 56 C78.14507275 60.54879409 84.09517049 65.28919292 90 70.14453125 C94.57743172 73.89051541 99.24626266 77.48112021 104 81 C109.44968305 85.03404273 114.76279056 89.19373635 120 93.5 C125.90581993 98.35499825 131.93196965 102.9995961 138.07250977 107.55297852 C143.24015603 111.39697983 148.27535451 115.38363617 153.28540039 119.42993164 C157.96506599 123.1989993 162.7154485 126.86525376 167.5 130.5 C173.51845469 135.073428 179.45193634 139.73571037 185.3359375 144.48046875 C190.00059014 148.22990473 194.73513532 151.87902552 199.5 155.5 C205.60452919 160.13924857 211.62709853 164.86553221 217.59741211 169.67602539 C222.70207529 173.78261979 227.88331905 177.77997627 233.09765625 181.74609375 C241.72167217 188.44334433 241.72167217 188.44334433 243 191 C243.40843971 194.67595736 243.3256876 196.47717238 241.34869385 199.65084839 C238.44218918 202.55791953 237.16149652 202.66483368 233.10839844 202.77392578 C231.91905701 202.81550812 230.72971558 202.85709045 229.5043335 202.89993286 C228.21899719 202.91490814 226.93366089 202.92988342 225.609375 202.9453125 C224.2633619 202.96903881 222.91735363 202.99304055 221.5713501 203.01730347 C218.7433881 203.06078885 215.91615888 203.08202569 213.08789062 203.09130859 C210.21490263 203.10423324 207.34795727 203.15925746 204.4765625 203.25537109 C176.96206788 204.16048638 176.96206788 204.16048638 167.515625 195.8046875 C165.82581657 194.14482887 164.21545726 192.44627723 162.63293457 190.68414307 C159.74794574 187.70868157 156.36441495 185.39926325 153 183 C147.54734249 178.97041451 142.23692858 174.80603271 137 170.5 C131.09418007 165.64500175 125.06803035 161.0004039 118.92749023 156.44702148 C113.75984397 152.60302017 108.72464549 148.61636383 103.71459961 144.57006836 C99.03493353 140.80100031 94.28454183 137.13475983 89.5 133.5 C83.38953732 128.85640833 77.36255572 124.12397143 71.38500977 119.31079102 C66.91316778 115.71510388 62.38927963 112.19542965 57.83178711 108.70922852 C53.96860713 105.75205972 50.13384652 102.7610054 46.3125 99.75 C40.12710432 94.87689591 33.91424668 90.03985348 27.69506836 85.20996094 C23.50697585 81.95559386 19.32690897 78.69166936 15.16235352 75.40722656 C13.44178566 74.05258196 11.7152542 72.70583714 9.98828125 71.359375 C8.16838968 69.92249329 6.3680284 68.45978284 4.60546875 66.953125 C3.93128906 66.39109375 3.25710938 65.8290625 2.5625 65.25 C2.02753906 64.78078125 1.49257813 64.3115625 0.94140625 63.828125 C-2.3705542 62.41537728 -4.56690279 63.07474279 -8 64 C-10.77478991 65.71931025 -13.17313319 67.79022979 -15.625 69.9375 C-17.0457056 71.13680331 -18.46759441 72.33470631 -19.890625 73.53125 C-20.93766602 74.42070312 -20.93766602 74.42070312 -22.00585938 75.328125 C-24.73590096 77.61697475 -27.54033795 79.77912788 -30.375 81.9375 C-31.41527344 82.7315625 -32.45554687 83.525625 -33.52734375 84.34375 C-34.07632324 84.76269531 -34.62530273 85.18164062 -35.19091797 85.61328125 C-38.78713858 88.3698984 -42.36139089 91.1548752 -45.9375 93.9375 C-46.7094873 94.53812256 -47.48147461 95.13874512 -48.27685547 95.75756836 C-53.42298277 99.76463835 -58.55549027 103.78863087 -63.68041992 107.82275391 C-72.20057655 114.52454734 -80.77138127 121.1616048 -89.33203125 127.81152344 C-97.461255 134.12704223 -105.58481513 140.44893135 -113.67285156 146.81713867 C-119.20668407 151.17070599 -124.76773655 155.48903024 -130.328125 159.80859375 C-134.89614155 163.35890593 -139.45429764 166.92117185 -144 170.5 C-149.28357315 174.65621593 -154.57456891 178.80279946 -159.875 182.9375 C-160.5453125 183.46214844 -161.215625 183.98679687 -161.90625 184.52734375 C-163.36765566 185.66581707 -164.84731607 186.78106245 -166.33984375 187.87841797 C-168.43042208 189.54573861 -170.17946837 191.17841708 -172.03515625 193.07861328 C-182.66824646 203.26506425 -193.74822089 203.5272702 -207.89453125 203.25 C-209.97746883 203.19092782 -212.06008189 203.12465097 -214.14276123 203.05712891 C-216.9752946 202.98033669 -219.80679625 202.96449267 -222.64023209 202.95027161 C-226.03676375 202.92967236 -229.43203053 202.87159247 -232.828125 202.8125 C-234.09158752 202.79550049 -235.35505005 202.77850098 -236.65679932 202.76098633 C-237.82612 202.72255615 -238.99544067 202.68412598 -240.20019531 202.64453125 C-241.22671204 202.61721924 -242.25322876 202.58990723 -243.31085205 202.56176758 C-246.70140383 201.85347555 -247.90150272 200.71604964 -250 198 C-250.8330671 194.48921723 -251.11060943 193.27922049 -250 190 C-247.14863521 186.43910956 -243.61623643 183.74233026 -240 181 C-239.41057617 180.55140625 -238.82115234 180.1028125 -238.21386719 179.640625 C-235.58952359 177.65360249 -232.95632441 175.67939984 -230.30859375 173.72363281 C-225.42614606 170.11180349 -220.6882215 166.35980389 -216 162.5 C-210.1205776 157.66488253 -204.11769635 153.04806039 -198 148.51953125 C-193.22804344 144.96852451 -188.59416516 141.2775244 -184 137.5 C-178.09418007 132.64500175 -172.06803035 128.0004039 -165.92749023 123.44702148 C-160.75984397 119.60302017 -155.72464549 115.61636383 -150.71459961 111.57006836 C-146.03493401 107.8010007 -141.2845515 104.13474624 -136.5 100.5 C-131.10826106 96.40281375 -125.77147934 92.25083121 -120.5 88 C-115.22851734 83.74916611 -109.89165874 79.59729552 -104.5 75.5 C-98.38961607 70.85630202 -92.36255868 66.12397381 -86.38500977 61.31079102 C-81.91316778 57.71510388 -77.38927963 54.19542965 -72.83178711 50.70922852 C-68.96860713 47.75205972 -65.13384652 44.7610054 -61.3125 41.75 C-55.12341989 36.87399317 -48.90662942 32.03437124 -42.68408203 27.20117188 C-38.006441 23.56599936 -33.3411428 19.91582885 -28.6875 16.25 C-24.05656823 12.60565804 -19.41330841 8.97784571 -14.75 5.375 C-14.20045654 4.94864258 -13.65091309 4.52228516 -13.0847168 4.08300781 C-8.41982878 0.48973322 -6.02066732 -0.60635408 0 0 Z " fill="#FFFFFF" transform="translate(304,132)"/>
<path d="M0 0 C0.11676073 26.62500123 0.20495272 53.24996414 0.25906086 79.87516975 C0.2848511 92.23750488 0.32001756 104.59968099 0.37719727 116.96191406 C0.4270068 127.73584818 0.45928504 138.50966716 0.47044247 149.28371322 C0.47696531 154.98943895 0.49231334 160.69483525 0.52865028 166.40045547 C0.56257076 171.77011245 0.57306079 177.13930406 0.56553841 182.509058 C0.5669147 184.48033361 0.57687053 186.45162468 0.59602737 188.42280769 C0.62090388 191.11440399 0.61492523 193.80424322 0.60127258 196.49588013 C0.61583679 197.27604748 0.630401 198.05621483 0.64540654 198.86002362 C0.59139673 202.79899498 0.06866898 205.4108546 -2.35007954 208.46900749 C-5.75373835 211.7199107 -8.03612792 212.12300878 -12.55981445 212.16113281 C-13.48119705 212.17074036 -14.40257965 212.1803479 -15.35188293 212.19024658 C-16.34564438 212.19449646 -17.33940582 212.19874634 -18.36328125 212.203125 C-19.38802048 212.20882507 -20.4127597 212.21452515 -21.46855164 212.22039795 C-23.63812223 212.22984715 -25.80770717 212.23638161 -27.97729492 212.24023438 C-31.28915596 212.24993165 -34.60039422 212.28095281 -37.91210938 212.3125 C-40.02082965 212.31903106 -42.12955436 212.32428113 -44.23828125 212.328125 C-45.22597 212.3404718 -46.21365875 212.3528186 -47.23127747 212.36553955 C-52.55502795 212.34837536 -56.44892231 212.09355485 -61 209 C-63.35504227 205.4674366 -63.27887509 203.92025514 -63.34817505 199.72842407 C-63.37404694 198.41365082 -63.39991882 197.09887756 -63.42657471 195.7442627 C-63.44501493 194.28345118 -63.46313144 192.82263555 -63.48095703 191.36181641 C-63.5065838 189.82582557 -63.53285484 188.28984536 -63.5597229 186.75387573 C-63.79180844 172.71246347 -63.90488098 158.66821141 -63.99325752 144.62523842 C-64.05964025 134.25253411 -64.17853624 123.88333958 -64.36827958 113.51214087 C-64.49731105 106.21092445 -64.56438579 98.91065883 -64.58675659 91.60834634 C-64.60182701 87.25165034 -64.64369589 82.8991913 -64.75281143 78.54375076 C-65.43716565 49.96924647 -65.43716565 49.96924647 -59.5512085 43.07806396 C-56.32688331 40.12723938 -52.89372462 37.97534579 -48.9874382 36.04111862 C-45.88056115 34.41358245 -43.34174372 32.27415555 -40.625 30.0625 C-39.01974381 28.83717434 -37.41448239 27.61185551 -35.80908203 26.38671875 C-32.21285831 23.63009922 -28.6388933 20.84476444 -25.0625 18.0625 C-23.92192139 17.17679321 -23.92192139 17.17679321 -22.75830078 16.27319336 C-19.09182917 13.42249406 -15.43713634 10.55902282 -11.80859375 7.66015625 C-11.1633374 7.14638428 -10.51808105 6.6326123 -9.85327148 6.10327148 C-8.64501971 5.13950327 -7.43993496 4.17174709 -6.23852539 3.19946289 C-2.22233351 0 -2.22233351 0 0 0 Z " fill="#FFFFFF" transform="translate(218,283)"/>
<path d="M0 0 C3.27807123 0.73589354 4.1214337 1.05081184 6.0625 3.6875 C6.45018005 6.25448608 6.45018005 6.25448608 6.46655273 9.36474609 C6.47923691 10.52960541 6.49192108 11.69446472 6.50498962 12.8946228 C6.50205399 14.15400665 6.49911835 15.4133905 6.49609375 16.7109375 C6.5013356 18.00440094 6.50657745 19.29786438 6.51197815 20.63052368 C6.52091334 23.36934146 6.51848291 26.10786775 6.50854492 28.84667969 C6.49707054 32.34961594 6.51723913 35.85154182 6.54646206 39.35434532 C6.56927051 42.70242895 6.56235508 46.05027807 6.55859375 49.3984375 C6.57544472 51.28144058 6.57544472 51.28144058 6.59263611 53.20248413 C6.57856468 54.95922958 6.57856468 54.95922958 6.56420898 56.75146484 C6.56404282 57.77944183 6.56387665 58.80741882 6.56370544 59.86654663 C5.53099612 65.67898321 0.94522241 68.76459195 -3.5625 72.125 C-4.72320647 72.99927 -5.88332927 73.87431523 -7.04296875 74.75 C-7.6673584 75.21921875 -8.29174805 75.6884375 -8.93505859 76.171875 C-12.6098072 78.95325019 -16.2399211 81.79210554 -19.875 84.625 C-20.63731934 85.21772705 -21.39963867 85.8104541 -22.18505859 86.42114258 C-25.79605428 89.23059093 -29.40024243 92.04799636 -32.98828125 94.88671875 C-33.92909546 95.6303064 -33.92909546 95.6303064 -34.88891602 96.38891602 C-36.04339634 97.30269025 -37.19636497 98.2183795 -38.34741211 99.13647461 C-47.93510931 106.72605349 -47.93510931 106.72605349 -52.1875 106.5625 C-54.9375 105.6875 -54.9375 105.6875 -56.9375 103.6875 C-57.25875854 101.19848633 -57.25875854 101.19848633 -57.35498047 98.01953125 C-57.39356171 96.83069336 -57.43214294 95.64185547 -57.47189331 94.41699219 C-57.58739243 88.95273015 -57.68662973 83.48907415 -57.74755859 78.02392578 C-57.78305018 75.14546086 -57.8524057 72.27096844 -57.95263672 69.39404297 C-58.8096375 44.22931207 -58.8096375 44.22931207 -54.41943359 38.68652344 C-51.60297651 36.01796569 -48.41586802 34.38891036 -44.9375 32.6875 C-42.81886834 31.18608401 -40.83435545 29.57184032 -38.8125 27.9375 C-37.73179208 27.11024752 -36.65004288 26.28434986 -35.56640625 25.4609375 C-32.06848575 22.79351513 -28.59027091 20.10120559 -25.11694336 17.40185547 C-23.54786074 16.18251886 -21.97707634 14.9653688 -20.40454102 13.75048828 C-17.15272498 11.23108835 -13.9201234 8.7119453 -10.8125 6.015625 C-4.7879644 0.83599378 -4.7879644 0.83599378 0 0 Z " fill="#FFFFFF" transform="translate(211.9375,106.3125)"/>
</svg>
