<?xml version="1.0" encoding="UTF-8"?>
<svg version="1.1" xmlns="http://www.w3.org/2000/svg" width="600" height="600">
<path d="M0 0 C4.5417178 1.12572493 7.877991 4.04015513 11.4375 6.9375 C12.67176622 7.9246152 13.90614469 8.91159006 15.140625 9.8984375 C16.08905273 10.66172363 16.08905273 10.66172363 17.05664062 11.44042969 C20.2497563 14.00294513 23.46872897 16.53234498 26.6875 19.0625 C27.27523193 19.52712646 27.86296387 19.99175293 28.46850586 20.47045898 C30.9313345 22.41138277 33.3890866 24.25939107 36 26 C36.36914349 28.88543129 36.36914349 28.88543129 36.36076355 32.65640259 C36.36332682 33.34823179 36.3658901 34.04006099 36.36853105 34.7528547 C36.37349171 37.08237749 36.35693925 39.4112591 36.34057617 41.74072266 C36.33973039 43.40602096 36.34020409 45.07132039 36.34190369 46.73661804 C36.34276697 51.26744413 36.32508746 55.79803357 36.30418181 60.32880449 C36.28547041 65.06004173 36.28366895 69.79128396 36.28010559 74.52255249 C36.27076881 83.48631972 36.24613299 92.44997763 36.21605712 101.41369665 C36.18256385 111.6166774 36.16603989 121.81966328 36.15097082 132.02268529 C36.11958479 153.01519817 36.0645524 174.0075611 36 195 C55.14 195 74.28 195 94 195 C94 154.74 94 114.48 94 73 C96.8112966 74.4056483 98.91917224 75.56331158 101.36328125 77.3984375 C101.99516357 77.87168457 102.6270459 78.34493164 103.27807617 78.83251953 C103.94943604 79.34153809 104.6207959 79.85055664 105.3125 80.375 C106.01673096 80.90593262 106.72096191 81.43686523 107.4465332 81.98388672 C112.89218352 86.11054032 118.24279152 90.34760281 123.56152344 94.63598633 C127.52408303 97.82932475 131.52027667 100.97066388 135.5625 104.0625 C140.70440166 107.99640263 145.80867739 111.9744347 150.89282227 115.98266602 C151.42834717 116.40475342 151.96387207 116.82684082 152.515625 117.26171875 C153.02813246 117.6860447 153.54063992 118.11037066 154.0686779 118.54755497 C155.9863432 120.06881889 155.9863432 120.06881889 158.27031136 121.20284939 C161.11583493 122.88849516 162.95451258 124.38300041 165 127 C166.35880711 132.635173 166.19127022 138.17928552 166.10107422 143.94750977 C166.10672511 145.68264384 166.11626629 147.41776894 166.12939453 149.15286255 C166.15329603 153.85382019 166.12102243 158.55286469 166.07720327 163.25361753 C166.03947052 168.17687113 166.04892969 173.10005652 166.05203247 178.02342224 C166.05010729 186.2896188 166.01302411 194.55507253 165.95361328 202.82104492 C165.88524894 212.37398006 165.86594377 221.92601559 165.8743819 231.47917134 C165.88191076 240.6752696 165.86093338 249.87106623 165.82483292 259.06709099 C165.8096086 262.97806166 165.80322337 266.88889896 165.80373764 270.79989815 C165.80260602 275.40573158 165.77614004 280.01075467 165.73017883 284.61635208 C165.71718988 286.30536602 165.7126263 287.99446917 165.71715164 289.68352699 C165.72185881 291.99187669 165.69574552 294.29791239 165.66183472 296.60597229 C165.65121411 298.54192686 165.65121411 298.54192686 165.64037895 300.51699162 C164.79890886 305.09373072 163.25227545 306.72665486 160 310 C157.42125035 311.28937482 155.52348305 311.15536072 152.63574219 311.19287109 C150.95324371 311.21696548 150.95324371 311.21696548 149.23675537 311.24154663 C144.0997498 311.2859447 138.96283349 311.32750913 133.82568359 311.35009766 C131.11537804 311.3634205 128.40582838 311.39124011 125.69580078 311.43212891 C121.79201344 311.49102565 117.88859141 311.50877086 113.984375 311.5234375 C112.7748114 311.54610687 111.5652478 311.56877625 110.31903076 311.59213257 C100.93959078 311.5685653 100.93959078 311.5685653 97.25097656 308.59228516 C93.87486911 304.70426901 93.8767982 302.80414874 93.88647461 297.71435547 C93.88632858 297.07032776 93.88618256 296.42630005 93.8860321 295.76275635 C93.8867296 293.63086598 93.89451434 291.49906263 93.90234375 289.3671875 C93.90420851 287.89031014 93.90563214 286.41343216 93.90663147 284.93655396 C93.91045208 281.04687801 93.92027848 277.15723933 93.93133545 273.26757812 C93.9433565 268.60198232 93.94795398 263.93637407 93.95378876 259.27076721 C93.96349047 252.18048555 93.9826502 245.09028566 94 238 C74.86 238 55.72 238 36 238 C36.04640625 242.77855469 36.0928125 247.55710937 36.140625 252.48046875 C36.16106764 255.51108949 36.18032355 258.541625 36.1953125 261.57226562 C36.21920736 266.38079523 36.24744891 271.18901964 36.30175781 275.99731445 C36.34527746 279.87471672 36.36914992 283.75179164 36.37950897 287.62941933 C36.38688947 289.10740626 36.40130214 290.58537563 36.42292023 292.06322289 C36.45203761 294.13653391 36.45595283 296.20849923 36.45410156 298.28198242 C36.46298401 299.46112717 36.47186646 300.64027191 36.48101807 301.85514832 C35.90106412 305.64683364 34.6557547 307.28597116 32 310 C29.39235672 311.30382164 27.44835172 311.14856248 24.52807617 311.17700195 C23.38316208 311.18983719 22.23824799 311.20267242 21.05863953 311.21589661 C19.19463249 311.22697701 19.19463249 311.22697701 17.29296875 311.23828125 C15.38394524 311.25038887 15.38394524 311.25038887 13.43635559 311.26274109 C10.73870188 311.27659227 8.04117082 311.28760561 5.34350586 311.29516602 C1.89331751 311.30622269 -1.55622449 311.34061336 -5.00618458 311.38033772 C-8.30223599 311.41281973 -11.59834417 311.41728435 -14.89453125 311.42578125 C-16.13112991 311.44328934 -17.36772858 311.46079742 -18.64179993 311.47883606 C-19.7961705 311.47591049 -20.95054108 311.47298492 -22.13989258 311.4699707 C-23.15312088 311.47583694 -24.16634918 311.48170319 -25.21028137 311.48774719 C-28.75161875 310.86858892 -30.42574853 309.45631733 -33 307 C-34.19799209 304.60401581 -34.13815238 303.10095133 -34.15936089 300.42459106 C-34.16936902 299.45490859 -34.17937715 298.48522612 -34.18968856 297.48615932 C-34.19564328 296.41323163 -34.20159799 295.34030394 -34.20773315 294.23486328 C-34.21775993 293.10089898 -34.22778672 291.96693468 -34.23811734 290.79860783 C-34.27038101 286.97253159 -34.29520505 283.14644507 -34.31982422 279.3203125 C-34.33510424 277.28337113 -34.35111306 275.24643632 -34.36717294 273.20950097 C-34.5684256 247.54768519 -34.67203205 221.88504599 -34.75568962 196.22261047 C-34.7667778 192.8806654 -34.77807008 189.53872109 -34.78955078 186.19677734 C-34.79239532 185.36614993 -34.79523985 184.53552252 -34.79817058 183.67972457 C-34.8456215 170.23259381 -34.94190833 156.78625034 -35.05712186 143.33954811 C-35.17443637 129.53297063 -35.24237118 115.72680204 -35.26382077 101.91973877 C-35.27721435 94.16778143 -35.31289267 86.41728935 -35.405056 78.66583252 C-35.48356561 72.06170135 -35.51794071 65.45920653 -35.4950311 58.85461563 C-35.48473522 55.48519719 -35.50238416 52.12219011 -35.56312943 48.75287819 C-35.92732992 27.46449421 -35.92732992 27.46449421 -31.18503189 22.27651978 C-28.08915612 19.60266924 -24.65786608 17.8190654 -21 16 C-19.26918051 14.71697876 -17.56154459 13.40090486 -15.8984375 12.03125 C-14.76341797 11.14566406 -14.76341797 11.14566406 -13.60546875 10.2421875 C-12.07906859 9.04993799 -10.55304485 7.85720645 -9.02734375 6.6640625 C-8.28355469 6.08398438 -7.53976562 5.50390625 -6.7734375 4.90625 C-6.11778809 4.39384766 -5.46213867 3.88144531 -4.78662109 3.35351562 C-3.23376738 2.17709844 -1.62096383 1.08064255 0 0 Z " fill="#FFFFFF" transform="translate(299,208)"/>
<path d="M0 0 C2.60570995 1.55259892 4.8361976 3.4552092 7.125 5.4375 C8.44827215 6.54019944 9.77250737 7.6417441 11.09765625 8.7421875 C11.7539502 9.29358398 12.41024414 9.84498047 13.08642578 10.41308594 C15.85337163 12.70769528 18.6999291 14.88923793 21.5625 17.0625 C25.96344243 20.42603435 30.33671622 23.82182791 34.6875 27.25 C40.10874665 31.52107668 45.54946072 35.76637071 51 40 C56.34490879 44.15210416 61.68232524 48.3130684 67 52.5 C75.30442076 59.03713772 83.65364676 65.51654721 92 72 C100.90690964 78.91889338 109.81144887 85.84001265 118.67285156 92.81713867 C123.43435444 96.56310013 128.21564129 100.28329181 133 104 C138.90507595 108.58733249 144.79692783 113.19057168 150.671875 117.81640625 C155.43374633 121.56255732 160.21531987 125.28304211 165 129 C170.90507595 133.58733249 176.79692783 138.19057168 182.671875 142.81640625 C187.43374633 146.56255732 192.21531987 150.28304211 197 154 C202.34487747 158.15214475 207.68232498 162.31306819 213 166.5 C221.30442076 173.03713772 229.65364676 179.51654721 238 186 C242.57104077 189.55078753 247.14141487 193.10239552 251.70703125 196.66015625 C254.50987741 198.8439379 257.32008671 201.01762869 260.13671875 203.18359375 C261.40371297 204.16397574 262.67064367 205.14443983 263.9375 206.125 C264.51081055 206.56223389 265.08412109 206.99946777 265.67480469 207.44995117 C272.73675542 212.93791746 272.73675542 212.93791746 273.375 217.9375 C272.9543466 221.37283613 272.05181308 223.23794392 270 226 C267.18995559 227.40502221 264.78816921 227.19792918 261.64526367 227.2722168 C260.66665375 227.29653023 260.66665375 227.29653023 259.66827393 227.32133484 C253.61971677 227.46215466 247.56968973 227.53984675 241.51984692 227.60025311 C237.46229568 227.64105643 233.40718833 227.70099095 229.35083008 227.80932617 C225.4189627 227.91396589 221.48926403 227.96780013 217.55608559 227.98771095 C216.06772598 228.0034999 214.57943233 228.03640366 213.09187889 228.08786583 C200.93925083 228.48773404 194.6456073 224.99532235 186 217 C184.77854924 216.0217672 183.54788523 215.05468607 182.30078125 214.109375 C180.82158203 212.94148438 180.82158203 212.94148438 179.3125 211.75 C173.89190632 207.47810029 168.4505327 203.23362418 163 199 C157.0948894 194.41271232 151.2030719 189.80942811 145.328125 185.18359375 C140.56625367 181.43744268 135.78468013 177.71695789 131 174 C125.65512253 169.84785525 120.31767502 165.68693181 115 161.5 C106.69557924 154.96286228 98.34635324 148.48345279 90 142 C81.09309036 135.08110662 72.18855113 128.15998735 63.32714844 121.18286133 C58.56564556 117.43689987 53.78435871 113.71670819 49 110 C43.65512284 105.84785549 38.31764232 101.68697309 33 97.5 C25.4227308 91.53441808 17.8205653 85.59987976 10.18505859 79.70898438 C8.65235523 78.51022197 7.13565516 77.2908488 5.63134766 76.05664062 C4.85194824 75.42435547 4.07254883 74.79207031 3.26953125 74.140625 C2.57061768 73.56344727 1.8717041 72.98626953 1.15161133 72.39160156 C-1.31010722 70.79943139 -3.08472418 70.24660767 -6 70 C-11.51877824 72.5719833 -15.97890517 76.23456772 -20.625 80.125 C-22.04579386 81.29688492 -23.46768172 82.46744466 -24.890625 83.63671875 C-25.58865234 84.21083496 -26.28667969 84.78495117 -27.00585938 85.37646484 C-31.32207272 88.89052198 -35.76667781 92.23698996 -40.19091797 95.61328125 C-43.78713858 98.3698984 -47.36139089 101.1548752 -50.9375 103.9375 C-51.7094873 104.53812256 -52.48147461 105.13874512 -53.27685547 105.75756836 C-58.42298277 109.76463835 -63.55549027 113.78863087 -68.68041992 117.82275391 C-77.20057655 124.52454734 -85.77138127 131.1616048 -94.33203125 137.81152344 C-102.461255 144.12704223 -110.58481513 150.44893135 -118.67285156 156.81713867 C-124.20668407 161.17070599 -129.76773655 165.48903024 -135.328125 169.80859375 C-139.89613978 173.35890456 -144.45448382 176.92093702 -149 180.5 C-155.08970936 185.29493471 -161.20720917 190.05358699 -167.328125 194.80859375 C-171.89614085 198.35890539 -176.45437383 201.92107566 -181 205.5 C-186.55132902 209.8685151 -192.11552113 214.22035233 -197.6875 218.5625 C-198.46673828 219.1709375 -199.24597656 219.779375 -200.04882812 220.40625 C-201.14420898 221.25896484 -201.14420898 221.25896484 -202.26171875 222.12890625 C-202.91100342 222.63494385 -203.56028809 223.14098145 -204.22924805 223.66235352 C-208.34308916 226.76999662 -210.48084345 227.25812533 -215.61108398 227.29052734 C-216.27809326 227.29724457 -216.94510254 227.30396179 -217.63232422 227.31088257 C-219.83698985 227.32987862 -222.04135138 227.33378738 -224.24609375 227.3359375 C-225.77922186 227.34236391 -227.31234873 227.34909215 -228.84547424 227.35610962 C-232.05920251 227.36808608 -235.27282325 227.37179003 -238.48657227 227.37060547 C-242.60381991 227.37040216 -246.72037822 227.39771435 -250.83746243 227.43214989 C-254.00392319 227.45439076 -257.17021724 227.4584439 -260.33674812 227.45738602 C-261.85460857 227.45974584 -263.37247334 227.46859091 -264.89025688 227.48405075 C-267.01383593 227.50365711 -269.13591812 227.49789596 -271.25952148 227.48583984 C-272.46736801 227.48868988 -273.67521454 227.49153992 -274.91966248 227.49447632 C-278.60007685 226.90367166 -279.73356722 225.89257332 -282 223 C-283.45147903 220.09704195 -283.37239025 218.22738221 -283 215 C-279.84795373 210.75183674 -276.57858542 207.66749872 -272.3125 204.5 C-271.15566451 203.6309872 -269.99944959 202.76114787 -268.84375 201.890625 C-268.225 201.42720703 -267.60625 200.96378906 -266.96875 200.48632812 C-263.38552826 197.7811379 -259.85218219 195.01175528 -256.3125 192.25 C-254.77224465 191.05064096 -253.23187876 189.85142386 -251.69140625 188.65234375 C-250.91812988 188.05019043 -250.14485352 187.44803711 -249.34814453 186.82763672 C-247.01302017 185.01013402 -244.6766529 183.19424212 -242.33984375 181.37890625 C-234.98697434 175.66615447 -227.64293821 169.94303147 -220.32714844 164.18286133 C-214.79331593 159.82929401 -209.23226345 155.51096976 -203.671875 151.19140625 C-199.10386022 147.64109544 -194.54551618 144.07906298 -190 140.5 C-183.91029064 135.70506529 -177.79279083 130.94641301 -171.671875 126.19140625 C-167.10385976 122.64109508 -162.5455646 119.0790019 -158 115.5 C-148.92215892 108.35403533 -139.79164276 101.27575265 -130.66796875 94.18847656 C-122.538745 87.87295777 -114.41518487 81.55106865 -106.32714844 75.18286133 C-100.79331593 70.82929401 -95.23226345 66.51096976 -89.671875 62.19140625 C-85.10386022 58.64109544 -80.54551618 55.07906298 -76 51.5 C-69.91029064 46.70506529 -63.79279083 41.94641301 -57.671875 37.19140625 C-53.10386001 33.64109528 -48.54553666 30.07903719 -44 26.5 C-36.42423281 20.53560061 -28.81640361 14.61220085 -21.19287109 8.70898438 C-19.64201812 7.50034812 -18.09878007 6.28191085 -16.56103516 5.05664062 C-15.76358887 4.42435547 -14.96614258 3.79207031 -14.14453125 3.140625 C-13.0613562 2.2748584 -13.0613562 2.2748584 -11.95629883 1.39160156 C-7.84214508 -1.53497729 -4.75916966 -1.14279438 0 0 Z " fill="#FFFFFF" transform="translate(305,111)"/>
<path d="M0 0 C0.11406239 29.32585058 0.20254801 58.65168543 0.25532665 87.97771246 C0.26158018 91.43989461 0.26805179 94.90207632 0.2746582 98.36425781 C0.27596976 99.05351596 0.27728131 99.74277411 0.2786326 100.45291887 C0.30038933 111.61339179 0.33981225 122.77373594 0.38576398 133.93413247 C0.43252137 145.38570922 0.45991957 156.83718146 0.47044247 168.28885639 C0.47696726 174.72115328 0.49232795 181.1531581 0.52865028 187.58536148 C0.56255216 193.6378901 0.57306448 199.69000592 0.56553841 205.74262047 C0.56691553 207.96545211 0.57688218 210.18829736 0.59602737 212.41104698 C0.62087393 215.44414674 0.61493513 218.47568432 0.60127258 221.50881958 C0.61583679 222.39015159 0.630401 223.2714836 0.64540654 224.17952263 C0.59359515 228.42951809 0.30658551 231.16012313 -2.41257954 234.53069878 C-5.97487975 237.93037517 -7.5615119 238.13048572 -12.36425781 238.19287109 C-13.48592346 238.20893402 -14.60758911 238.22499695 -15.76324463 238.24154663 C-20.9002502 238.2859447 -26.03716651 238.32750913 -31.17431641 238.35009766 C-33.88462196 238.3634205 -36.59417162 238.39124011 -39.30419922 238.43212891 C-43.20798656 238.49102565 -47.11140859 238.50877086 -51.015625 238.5234375 C-52.2251886 238.54610687 -53.4347522 238.56877625 -54.68096924 238.59213257 C-64.06040922 238.5685653 -64.06040922 238.5685653 -67.74902344 235.59228516 C-71.2398861 231.57211382 -71.14499544 229.40753507 -71.22119141 224.12063599 C-71.23834827 223.04658974 -71.23834827 223.04658974 -71.25585175 221.9508456 C-71.29277227 219.53905242 -71.32229759 217.12722947 -71.3515625 214.71533203 C-71.37582552 212.99068391 -71.4003162 211.26603898 -71.42501831 209.54139709 C-71.6418392 193.76961927 -71.76287841 177.99660352 -71.85931396 162.2236805 C-71.92557896 151.62081419 -72.02010377 141.01977918 -72.18652344 130.41796875 C-72.33172429 121.1674487 -72.42378717 111.91819912 -72.45199776 102.66655433 C-72.46864332 97.77199596 -72.51093853 92.88082383 -72.61651611 87.9873085 C-72.71503097 83.37477957 -72.74160673 78.76721097 -72.7149086 74.15376091 C-72.7174224 72.46859408 -72.74530665 70.78322731 -72.80154037 69.09899712 C-73.1920129 56.77029185 -73.1920129 56.77029185 -69.5512085 52.16900015 C-66.01325925 48.69479153 -62.07301677 45.9175656 -57.907547 43.24990821 C-54.94883323 41.31122957 -52.21564363 39.12595952 -49.4375 36.9375 C-48.36843362 36.11686368 -47.29826374 35.29766112 -46.2265625 34.48046875 C-42.90037086 31.9307924 -39.60436133 29.34377265 -36.3125 26.75 C-28.6350687 20.70200649 -20.92591087 14.69467585 -13.19677734 8.71289062 C-11.63179734 7.4926306 -10.07574324 6.26088644 -8.52587891 5.02148438 C-7.71940918 4.38017578 -6.91293945 3.73886719 -6.08203125 3.078125 C-5.34831299 2.4893457 -4.61459473 1.90056641 -3.85864258 1.29394531 C-2 0 -2 0 0 0 Z " fill="#FFFFFF" transform="translate(207,281)"/>
<path d="M0 0 C2.88843277 2.18485316 3.89384904 3.38310709 4.5146637 6.99095154 C4.52086227 8.15723587 4.52706085 9.3235202 4.53344727 10.52514648 C4.54637062 11.49420929 4.54637062 11.49420929 4.55955505 12.48284912 C4.58220756 14.61267476 4.57547835 16.74118366 4.56640625 18.87109375 C4.5716426 20.35555919 4.57791913 21.84002128 4.58518982 23.32447815 C4.59559287 26.43400744 4.59103502 29.5430791 4.57641602 32.65258789 C4.55923588 36.63207601 4.58271205 40.61011922 4.61790562 44.58944607 C4.63989774 47.65478533 4.63843383 50.71977988 4.6301403 53.78517342 C4.6293216 55.2519597 4.63616973 56.7187715 4.65091133 58.18548393 C4.66839164 60.2397039 4.65379257 62.29134154 4.63110352 64.34545898 C4.63014175 65.51253891 4.62917999 66.67961884 4.62818909 67.88206482 C3.37918378 74.08134091 -2.64546407 77.43513233 -7.4375 81.125 C-8.69148625 82.10015755 -9.94539028 83.07542083 -11.19921875 84.05078125 C-11.8339209 84.54271973 -12.46862305 85.0346582 -13.12255859 85.54150391 C-15.44581861 87.34633555 -17.75732657 89.16575403 -20.06787109 90.98681641 C-28.28395355 97.46190026 -36.53131271 103.89817928 -44.8125 110.28979492 C-46.35244527 111.49373651 -47.87725729 112.71716142 -49.390625 113.9543457 C-50.56818359 114.90700317 -50.56818359 114.90700317 -51.76953125 115.87890625 C-52.4756958 116.45970947 -53.18186035 117.0405127 -53.90942383 117.63891602 C-57.50058672 119.97696729 -59.83540598 119.7898368 -64 119 C-66.36351676 116.71909773 -66.95736578 115.31920736 -67.39440918 112.04701233 C-67.40282837 110.89849289 -67.41124756 109.74997345 -67.41992188 108.56665039 C-67.43583374 107.26172134 -67.45174561 105.9567923 -67.46813965 104.61231995 C-67.46940691 103.19076593 -67.46958377 101.76921059 -67.46875 100.34765625 C-67.47585327 98.88561206 -67.48355251 97.42357066 -67.49182129 95.96153259 C-67.50525966 92.89916228 -67.50683787 89.83704973 -67.50097656 86.7746582 C-67.49508056 82.85574678 -67.52566863 78.9380743 -67.56609344 75.0194025 C-67.59197959 72.00041576 -67.59484713 68.981727 -67.59120178 65.96264458 C-67.59289218 64.51817142 -67.60252727 63.07368438 -67.62034607 61.62932014 C-67.64254742 59.6072493 -67.62961947 57.58488569 -67.61523438 55.56274414 C-67.61728882 54.41342911 -67.61934326 53.26411407 -67.62145996 52.07997131 C-66.81216722 48.06909596 -65.06914763 46.60929181 -62 44 C-61.39607422 43.47124268 -60.79214844 42.94248535 -60.16992188 42.39770508 C-59.60853516 41.94290771 -59.04714844 41.48811035 -58.46875 41.01953125 C-57.510896 40.24138062 -57.510896 40.24138062 -56.53369141 39.44750977 C-55.86257324 38.90795654 -55.19145508 38.36840332 -54.5 37.8125 C-53.43724854 36.95386353 -53.43724854 36.95386353 -52.35302734 36.07788086 C-47.12383137 31.8678553 -41.83384685 27.74740065 -36.49609375 23.67578125 C-31.44677359 19.82309503 -26.44758073 15.9054316 -21.44189453 11.99633789 C-5.2504026 -0.62504793 -5.2504026 -0.62504793 0 0 Z " fill="#FFFFFF" transform="translate(203,82)"/>
</svg>
