<svg width="24" height="37" viewBox="0 0 24 37" fill="none" xmlns="http://www.w3.org/2000/svg">
<path d="M19 12C19.0012 12.1987 18.9432 12.3931 18.8334 12.5587C18.7236 12.7242 18.567 12.8532 18.3835 12.9294C18.2001 13.0056 17.9981 13.0254 17.8033 12.9863C17.6086 12.9473 17.4299 12.8511 17.29 12.71L12 7.41004L6.71003 12.71C6.51873 12.8739 6.27265 12.9595 6.02097 12.9498C5.7693 12.94 5.53056 12.8357 5.35246 12.6576C5.17437 12.4795 5.07004 12.2408 5.06032 11.9891C5.05059 11.7374 5.1362 11.4913 5.30003 11.3L11.3 5.30004C11.4874 5.11379 11.7408 5.00925 12.005 5.00925C12.2692 5.00925 12.5227 5.11379 12.71 5.30004L18.71 11.3C18.8948 11.4863 18.9989 11.7377 19 12Z" fill="#1E75FA"/>
<path d="M19.0002 18C19.0013 18.1987 18.9433 18.3931 18.8335 18.5587C18.7237 18.7242 18.5671 18.8532 18.3837 18.9294C18.2002 19.0056 17.9983 19.0254 17.8035 18.9863C17.6088 18.9473 17.4301 18.8511 17.2902 18.71L12.0002 13.41L6.71019 18.71C6.52188 18.8983 6.26649 19.0041 6.00019 19.0041C5.73388 19.0041 5.47849 18.8983 5.29019 18.71C5.10188 18.5217 4.99609 18.2663 4.99609 18C4.99609 17.7337 5.10188 17.4783 5.29019 17.29L11.2902 11.29C11.4775 11.1038 11.731 10.9993 11.9952 10.9993C12.2594 10.9993 12.5128 11.1038 12.7002 11.29L18.7002 17.29C18.7947 17.3827 18.8698 17.4931 18.9213 17.615C18.9728 17.7369 18.9996 17.8677 19.0002 18Z" fill="#1E75FA"/>
<path d="M19 25C19.0012 25.1987 18.9432 25.3931 18.8334 25.5587C18.7236 25.7242 18.567 25.8532 18.3835 25.9294C18.2001 26.0056 17.9981 26.0254 17.8033 25.9863C17.6086 25.9473 17.4299 25.8511 17.29 25.71L12 20.41L6.71003 25.71C6.51873 25.8739 6.27265 25.9595 6.02097 25.9498C5.7693 25.94 5.53056 25.8357 5.35246 25.6576C5.17437 25.4795 5.07004 25.2408 5.06032 24.9891C5.05059 24.7374 5.1362 24.4913 5.30003 24.3L11.3 18.3C11.4874 18.1138 11.7408 18.0093 12.005 18.0093C12.2692 18.0093 12.5227 18.1138 12.71 18.3L18.71 24.3C18.8948 24.4863 18.9989 24.7377 19 25Z" fill="#1E75FA"/>
<path d="M19.0002 31C19.0013 31.1987 18.9433 31.3931 18.8335 31.5587C18.7237 31.7242 18.5671 31.8532 18.3837 31.9294C18.2002 32.0056 17.9983 32.0254 17.8035 31.9863C17.6088 31.9473 17.4301 31.8511 17.2902 31.71L12.0002 26.41L6.71019 31.71C6.52188 31.8983 6.26649 32.0041 6.00019 32.0041C5.73388 32.0041 5.47849 31.8983 5.29019 31.71C5.10188 31.5217 4.99609 31.2663 4.99609 31C4.99609 30.7337 5.10188 30.4783 5.29019 30.29L11.2902 24.29C11.4775 24.1038 11.731 23.9993 11.9952 23.9993C12.2594 23.9993 12.5128 24.1038 12.7002 24.29L18.7002 30.29C18.7947 30.3827 18.8698 30.4931 18.9213 30.615C18.9728 30.7369 18.9996 30.8677 19.0002 31Z" fill="#C0D8F9"/>
</svg>
