<svg width="48" height="48" viewBox="0 0 48 48" fill="none" xmlns="http://www.w3.org/2000/svg">
<rect width="48" height="48" rx="24" fill="#1E75FA" fill-opacity="0.1"/>
<g clip-path="url(#clip0_118_2039)">
<path d="M12.0877 23.7916L16.6971 14.2172C16.9018 13.7908 17.402 13.5961 17.8451 13.7639C18.4931 13.9957 19.0301 14.1365 19.5403 14.207C20.9874 14.4052 22.5316 14.0996 23.8877 13.3477C25.5863 12.3708 27.5134 11.9713 29.4638 12.1928C31.1626 12.3841 32.7403 13.0321 34.0663 14.0761L34.3081 13.5725C34.3214 13.5423 34.3383 13.5154 34.3585 13.4921C34.3214 13.3981 34.3014 13.2939 34.3014 13.1832C34.3014 12.7166 34.6807 12.3339 35.1507 12.3339C35.6174 12.3339 36 12.7133 36 13.1832C36 13.5759 35.7313 13.9083 35.3689 14.0023C35.3623 14.0226 35.352 14.0459 35.342 14.0661L25.0359 35.494C24.9386 35.6989 24.7337 35.8165 24.5222 35.8165C24.4384 35.8165 24.3544 35.7996 24.274 35.7594C23.9884 35.6216 23.8711 35.2825 24.0053 34.9971L28.6649 25.3188C26.1035 23.1904 22.508 22.8716 19.5908 24.5535C18.5399 25.1544 17.3449 25.517 16.1365 25.6008C15.9551 25.6144 15.7771 25.6177 15.5958 25.6177C14.5654 25.6177 13.5279 25.4197 12.5746 25.0335C12.3395 24.9395 12.1551 24.7482 12.0644 24.5166C11.9704 24.2782 11.9804 24.0131 12.0877 23.7916ZM15.7269 24.4798L17.1937 21.3978C17.1133 21.4012 17.0326 21.4012 16.9522 21.4012C16.18 21.4012 15.4078 21.2803 14.6727 21.0487L13.2226 24.06C14.0383 24.3555 14.8843 24.4964 15.7269 24.4798ZM22.7465 22.3816L24.2135 19.303C23.0016 19.4073 21.7998 19.7697 20.6952 20.4041C20.6719 20.4177 20.6516 20.4276 20.6281 20.4412L19.1812 23.4724C20.2959 22.8616 21.5043 22.4922 22.7465 22.3816ZM29.3598 16.3991C28.2485 16.0098 27.0637 15.8554 25.8919 15.946L24.3275 19.2259C25.5026 19.1419 26.6808 19.2997 27.7921 19.6892L29.3598 16.3991ZM24.4517 14.3414C24.4517 14.3414 24.4484 14.3414 24.4484 14.3448L24.4451 14.3481C24.0691 14.5563 23.6798 14.7341 23.2836 14.8818L22.2798 16.99C23.4011 16.3456 24.6197 15.9829 25.8484 15.8823L27.0334 13.3948C26.1437 13.5559 25.2708 13.8714 24.4517 14.3414ZM22.1254 17.1478C21.1887 17.6513 20.1379 17.9568 19.0737 18.0273C19.0066 18.0309 18.9361 18.0342 18.869 18.0375L17.3013 21.3274C18.4326 21.2736 19.5539 20.9581 20.5779 20.3874L22.1254 17.1478ZM19.3895 15.3385C18.8455 15.2645 18.2848 15.1236 17.6338 14.8987L16.3176 17.6346C17.1369 17.8964 17.9829 18.0106 18.8219 17.9804L20.0541 15.399C19.8292 15.3887 19.6077 15.3687 19.3895 15.3385ZM30.7631 13.6094L29.4505 16.3589C30.4406 16.7149 31.3739 17.2553 32.1966 17.9737L33.5627 15.1303C32.7234 14.4288 31.7701 13.9183 30.7631 13.6094ZM30.5582 21.3845C29.7424 20.6661 28.8125 20.129 27.8256 19.773L26.3888 22.7842C27.3958 23.1067 28.3358 23.6069 29.1751 24.2615L30.5582 21.3845Z" fill="black"/>
</g>
<defs>
<clipPath id="clip0_118_2039">
<rect width="24" height="24" fill="white" transform="matrix(-1 0 0 1 36 12)"/>
</clipPath>
</defs>
</svg>
