<svg width="48" height="48" viewBox="0 0 48 48" fill="none" xmlns="http://www.w3.org/2000/svg">
<rect width="48" height="48" rx="24" fill="#1E75FA" fill-opacity="0.1"/>
<g clip-path="url(#clip0_119_2171)">
<path d="M24.1314 33.8438C24.1033 33.8672 24.0799 33.8953 24.0518 33.9234V33.8906C24.0611 33.8859 24.0705 33.8813 24.0799 33.8719H24.0846C24.0986 33.8625 24.1174 33.8531 24.1314 33.8438Z" fill="#D3DCFB"/>
<path d="M32.8598 29.8592C30.4551 29.7514 27.9145 30.7498 25.6504 32.5123C25.1301 32.9154 24.6238 33.3608 24.1363 33.8436H24.1316C24.1129 33.8529 24.0988 33.8623 24.0801 33.8764C24.577 33.0139 25.102 32.2123 25.6457 31.4764C27.2582 29.2967 29.0254 27.7264 30.7035 27.1404V20.0436C30.6988 19.3029 30.6988 18.5576 30.6988 17.817V15.8389C31.4207 15.6842 32.1379 15.6233 32.8504 15.6561V21.4592C32.8598 24.2576 32.8598 27.0608 32.8598 29.8592Z" fill="#D3DCFB"/>
<path d="M24.0094 33.9186C24.0047 33.9232 24.0047 33.9232 24 33.9232V33.9092L24.0094 33.9186Z" fill="#BEC8F7"/>
<path d="M30.7074 20.0436V27.1357C29.0246 27.7217 27.2574 29.292 25.6496 31.4717C25.1059 32.2076 24.5809 33.0139 24.084 33.8717H24.0793C24.0699 33.8764 24.0605 33.8811 24.0512 33.8904C24.0418 33.8951 24.0324 33.8998 24.023 33.9092V19.8561C24.0184 19.8514 24.0184 19.8514 24.0137 19.8514C24.0277 19.842 24.0371 19.8326 24.0512 19.8279V19.7201C26.034 16.2889 28.4434 13.7201 30.7074 12.9326V17.817C30.7027 18.5623 30.7027 19.3029 30.7074 20.0436Z" fill="#E9EFFF"/>
<path d="M34.3268 18.2344V32.3016C34.3174 32.2969 34.3127 32.2969 34.3033 32.2969C31.4111 31.5188 28.3549 31.8563 25.6455 33.0563C25.1299 33.2813 24.6283 33.5437 24.1455 33.8344L24.1502 33.825C24.6283 33.3516 25.1299 32.9109 25.6455 32.5125C27.9143 30.75 30.4502 29.7516 32.8596 29.8594C32.8596 27.0609 32.8596 24.2578 32.8549 21.4547V17.9297C33.3518 18.0047 33.8393 18.1031 34.3268 18.2344Z" fill="#BEC8F7"/>
<path d="M24.1498 33.8247L24.1451 33.8341C24.1404 33.8341 24.1357 33.8388 24.1357 33.8388L24.1498 33.8247Z" fill="#BEC8F7"/>
<path d="M35.5453 20.0435H34.3266V32.3013C34.3219 32.2966 34.3078 32.2966 34.3031 32.2966V33.656H26.4375L25.6453 33.281V33.056C25.125 33.2856 24.6187 33.5481 24.1312 33.8388H24.1266C24.1078 33.8481 24.0938 33.8575 24.075 33.8716H24.0703C24.0609 33.8763 24.0516 33.881 24.0422 33.8903C24.0328 33.895 24.0234 33.8997 24.0141 33.9091C24.0094 33.9138 24.0094 33.9138 24.0047 33.9185H24L23.9906 33.9091C23.9859 33.9091 23.9859 33.9044 23.9859 33.9044C23.9719 33.895 23.9578 33.8856 23.9438 33.8763C23.4281 33.5669 22.8938 33.2903 22.3453 33.0466V33.281L21.5578 33.656H13.6969V20.0435H12.4547C12.225 20.0435 12.0469 20.1981 12.0469 20.395V34.72C12.0469 34.9169 12.2297 35.0716 12.4547 35.0716H21.5906C21.8531 35.0716 22.1156 35.0153 22.3406 34.9028L24 34.1106L25.6594 34.9028C25.8891 35.0106 26.1469 35.0716 26.4094 35.0716H35.5406C35.7703 35.0716 35.9484 34.9169 35.9484 34.72V20.395C35.9531 20.1981 35.7703 20.0435 35.5453 20.0435Z" fill="#2A428C"/>
<path d="M22.3504 33.0468V33.2812L21.5629 33.6562H13.6973V32.3015C16.5895 31.5187 19.6457 31.8515 22.3504 33.0468Z" fill="#3C58A0"/>
<path d="M34.3033 32.2969V33.6563H26.4377L25.6455 33.2813V33.0563C28.3549 31.8563 31.4158 31.5188 34.3033 32.2969Z" fill="#3C58A0"/>
<path d="M23.9486 33.8764C23.433 33.567 22.8986 33.2904 22.3502 33.0467C19.6455 31.8514 16.5893 31.5186 13.6924 32.3014V18.2342C14.1846 18.0982 14.6861 17.9951 15.1924 17.9248C15.1877 18.6326 15.1877 19.3357 15.1877 20.0436V21.4545C15.1877 24.2576 15.1877 27.0561 15.183 29.8592C17.5736 29.7514 20.0908 30.7357 22.3455 32.4748C22.9033 32.8967 23.4377 33.3701 23.9486 33.8764Z" fill="#BEC8F7"/>
<path d="M24.0234 19.8561V33.9092C24.0188 33.9139 24.0187 33.9139 24.0141 33.9186H24.0094L24 33.9092C23.9953 33.9092 23.9953 33.9045 23.9953 33.9045C23.9812 33.8951 23.9672 33.8858 23.9531 33.8764C23.4375 33.3701 22.9031 32.8967 22.3547 32.4748C20.0953 30.7358 17.5781 29.7514 15.1875 29.8592C15.1922 27.0608 15.1922 24.2576 15.1922 21.4545V20.0436C15.1922 19.3358 15.1922 18.6326 15.1969 17.9248V15.6561C18.1875 15.5201 21.3797 17.0998 24 19.7201V19.842C24.0047 19.8467 24.0047 19.8467 24.0094 19.8514H24.0141C24.0187 19.8514 24.0188 19.8514 24.0234 19.8561Z" fill="#D3DCFB"/>
<path d="M22.5793 22.2701C22.4949 22.2701 22.4105 22.242 22.3355 22.1857C20.6105 20.8076 18.7496 19.9123 16.9637 19.5982C16.7527 19.5607 16.6121 19.3592 16.6496 19.1482C16.6871 18.9373 16.8887 18.7967 17.0996 18.8342C19.0168 19.167 20.9949 20.1186 22.823 21.5811C22.9918 21.717 23.0199 21.9607 22.884 22.1295C22.8043 22.2186 22.6918 22.2701 22.5793 22.2701Z" fill="#FD995B"/>
<path d="M22.5793 25.5372C22.4949 25.5372 22.4105 25.5091 22.3355 25.4528C20.6105 24.0747 18.7496 23.1794 16.9637 22.8653C16.7527 22.8278 16.6121 22.6263 16.6496 22.4153C16.6871 22.2044 16.8887 22.0638 17.0996 22.1013C19.0168 22.4341 20.9949 23.3856 22.823 24.8481C22.9918 24.9841 23.0199 25.2278 22.884 25.3966C22.8043 25.4856 22.6918 25.5372 22.5793 25.5372Z" fill="#FD995B"/>
<path d="M22.5793 29.1749C22.4949 29.1749 22.4105 29.1468 22.3355 29.0905C20.6105 27.7124 18.7496 26.8171 16.9637 26.503C16.7527 26.4655 16.6121 26.264 16.6496 26.053C16.6871 25.8421 16.8887 25.7015 17.0996 25.739C19.0168 26.0718 20.9949 27.0233 22.823 28.4858C22.9918 28.6218 23.0199 28.8655 22.884 29.0343C22.8043 29.1233 22.6918 29.1749 22.5793 29.1749Z" fill="#FD995B"/>
</g>
<defs>
<clipPath id="clip0_119_2171">
<rect width="24" height="24" fill="white" transform="translate(12 12)"/>
</clipPath>
</defs>
</svg>
