<svg width="64" height="64" viewBox="0 0 64 64" fill="none" xmlns="http://www.w3.org/2000/svg">
<path fill-rule="evenodd" clip-rule="evenodd" d="M61.2226 33.3888C61.2226 34.0998 60.6462 34.676 59.9354 34.676H54.981C54.3338 47.129 44.3515 57.1113 31.8986 57.7585V62.7128C31.8986 63.4237 31.3223 64 30.6114 64C29.9004 64 29.3242 63.4237 29.3242 62.7128V57.7585C16.8712 57.1113 6.88888 47.129 6.24167 34.676H1.28721C0.576283 34.676 0 34.0998 0 33.3888C0 32.6779 0.576283 32.1016 1.28721 32.1016H6.24154C6.88875 19.6487 16.8711 9.6664 29.324 9.01919V4.06487C29.324 3.35394 29.9004 2.77766 30.6112 2.77766C31.322 2.77766 31.8984 3.35394 31.8984 4.06487V9.02009C36.8413 9.27715 41.3949 11.0042 45.1299 13.7735L41.7996 17.1037C38.619 14.9138 34.7651 13.6313 30.6112 13.6313C19.6993 13.6313 10.8535 22.4771 10.8535 33.389C10.8535 44.3009 19.6993 53.1467 30.6112 53.1467C41.5232 53.1467 50.369 44.3009 50.369 33.389C50.369 29.2351 49.086 25.3816 46.8965 22.2006L50.2267 18.8703C52.9959 22.6055 54.7231 27.159 54.9801 32.1018H59.9354C60.6463 32.1018 61.2226 32.678 61.2226 33.389V33.3888ZM38.442 20.4614C36.1583 19.0751 33.4781 18.2769 30.6114 18.2769C22.2652 18.2769 15.4994 25.0427 15.4994 33.3888C15.4994 41.7349 22.2652 48.5008 30.6114 48.5008C38.9575 48.5008 45.7233 41.7349 45.7233 33.3888C45.7233 30.5221 44.9251 27.8419 43.5388 25.5582L40.1093 28.9877C40.7302 30.3258 41.0777 31.8166 41.0777 33.3888C41.0777 39.1692 36.3918 43.855 30.6115 43.855C24.8312 43.855 20.1453 39.1692 20.1453 33.3888C20.1453 27.6085 24.8312 22.9227 30.6115 22.9227C32.1837 22.9227 33.6747 23.2698 35.0126 23.8911L38.4421 20.4615L38.442 20.4614ZM32.1628 26.7405C31.6644 26.6247 31.145 26.5633 30.6115 26.5633C26.8419 26.5633 23.7861 29.6191 23.7861 33.3887C23.7861 37.1583 26.8419 40.2141 30.6115 40.2141C34.3811 40.2141 37.4369 37.1583 37.4369 33.3887C37.4369 32.855 37.3755 32.3356 37.2597 31.8372L33.8357 35.2612C32.4289 36.668 30.1458 36.668 28.739 35.2612C27.3322 33.8544 27.3322 31.5713 28.739 30.1644L32.1628 26.7405ZM30.3772 31.8027C29.8746 32.3054 29.8746 33.1203 30.3772 33.6228C30.8799 34.1255 31.6948 34.1255 32.1973 33.6228L49.4239 16.3963L55.5204 16.7549L64 8.27532L56.1845 7.81553L55.7247 0L47.2451 8.4796L47.6037 14.5761L30.3771 31.8026L30.3772 31.8027Z" fill="url(#paint0_linear_119_2283)"/>
<defs>
<linearGradient id="paint0_linear_119_2283" x1="32" y1="64" x2="32" y2="0.000129699" gradientUnits="userSpaceOnUse">
<stop stop-color="#9345FF"/>
<stop offset="1" stop-color="#00C1FF"/>
</linearGradient>
</defs>
</svg>
