<svg width="25" height="25" viewBox="0 0 25 25" fill="none" xmlns="http://www.w3.org/2000/svg">
<g clip-path="url(#clip0_65_694)">
<path d="M8.12099 22.1685C7.60099 22.1685 7.19064 21.8947 6.96224 21.4994C6.73389 21.1042 6.69799 20.6099 6.96199 20.161C7.20129 19.7412 7.63789 19.4918 8.12099 19.4918C8.64159 19.4918 9.05189 19.7655 9.28014 20.1608C9.50839 20.556 9.54394 21.0504 9.28004 21.4994C9.04194 21.9192 8.60549 22.1685 8.12099 22.1685ZM4.15674 22.2685C4.70569 23.7735 5.95789 24.7182 7.34834 24.9774C8.73874 25.2366 10.2695 24.8002 11.3244 23.5741C11.6617 23.1802 11.9125 22.7446 12.0852 22.2685H22.0047C22.553 22.2643 23.0111 21.9639 23.2504 21.5495C23.4897 21.135 23.5208 20.5881 23.2502 20.111C22.994 19.673 22.5142 19.3951 22.0047 19.3918H12.0851C11.5368 17.8875 10.285 16.9428 8.89474 16.6834C7.50449 16.424 5.97374 16.86 4.91884 18.0861C4.58169 18.48 4.32954 18.9156 4.15669 19.3918H2.56749C2.01979 19.396 1.56169 19.6963 1.32219 20.1107C1.08274 20.5252 1.05134 21.0722 1.32194 21.5493C1.57944 21.9874 2.05934 22.2651 2.56749 22.2685H4.15674ZM16.4511 13.8383C15.9311 13.8383 15.5208 13.5645 15.2924 13.1693C15.064 12.774 15.0281 12.2797 15.2921 11.8308C15.5314 11.4109 15.9679 11.1616 16.4511 11.1616C16.9717 11.1616 17.3821 11.4353 17.6103 11.8306C17.8385 12.2259 17.874 12.7203 17.61 13.1692C17.3721 13.589 16.9357 13.8383 16.4511 13.8383ZM12.4869 13.9383C13.0359 15.4432 14.2881 16.388 15.6785 16.6472C17.0689 16.9064 18.5997 16.47 19.6545 15.2439C19.9918 14.85 20.2426 14.4144 20.4154 13.9383H22.0047C22.553 13.9341 23.0111 13.6338 23.2504 13.2193C23.4897 12.8048 23.5208 12.2579 23.2502 11.7808C22.994 11.3427 22.5142 11.0649 22.0047 11.0616H20.4153C19.867 9.55734 18.6151 8.61264 17.2249 8.35319C15.8347 8.09379 14.3039 8.52984 13.2491 9.75594C12.9119 10.1497 12.6597 10.5854 12.4869 11.0616H2.56749C2.01979 11.0658 1.56169 11.3661 1.32219 11.7806C1.08274 12.1951 1.05134 12.742 1.32194 13.2191C1.57944 13.6572 2.05934 13.9349 2.56749 13.9383H12.4869ZM8.12099 5.50804C7.60099 5.50804 7.19064 5.23434 6.96224 4.83909C6.73389 4.44384 6.69794 3.94959 6.96194 3.50074C7.20124 3.08079 7.63784 2.83149 8.12099 2.83149C8.64159 2.83149 9.05189 3.10519 9.28014 3.50049C9.50839 3.89574 9.54394 4.39014 9.28004 4.83909C9.04194 5.25889 8.60549 5.50804 8.12099 5.50804ZM4.15674 5.60804C4.70569 7.11304 5.95789 8.05779 7.34834 8.31704C8.73874 8.57629 10.2695 8.13984 11.3244 6.91374C11.6617 6.51984 11.9125 6.08429 12.0852 5.60804H22.0047C22.553 5.60384 23.0111 5.30354 23.2504 4.88909C23.4897 4.47464 23.5208 3.92779 23.2502 3.45069C22.994 3.01254 22.5142 2.73484 22.0047 2.73149H12.0851C11.5368 1.22724 10.285 0.282536 8.89474 0.0231363C7.50449 -0.236264 5.97374 0.199786 4.91884 1.42584C4.58174 1.81979 4.32954 2.25529 4.15669 2.73149H2.56749C2.01979 2.73569 1.56169 3.03599 1.32219 3.45044C1.08274 3.86494 1.05134 4.41189 1.32194 4.88904C1.57944 5.32709 2.05934 5.60469 2.56749 5.60804H4.15674Z" fill="#838589"/>
</g>
<defs>
<clipPath id="clip0_65_694">
<rect width="25" height="25" fill="white"/>
</clipPath>
</defs>
</svg>
